<?xml version="1.0" encoding="utf-8" standalone="no"?>
<!DOCTYPE svg PUBLIC "-//W3C//DTD SVG 1.1//EN"
  "http://www.w3.org/Graphics/SVG/1.1/DTD/svg11.dtd">
<svg xmlns:xlink="http://www.w3.org/1999/xlink" width="748.962216pt" height="344.923216pt" viewBox="0 0 748.962216 344.923216" xmlns="http://www.w3.org/2000/svg" version="1.1">
 <metadata>
  <rdf:RDF xmlns:dc="http://purl.org/dc/elements/1.1/" xmlns:cc="http://creativecommons.org/ns#" xmlns:rdf="http://www.w3.org/1999/02/22-rdf-syntax-ns#">
   <cc:Work>
    <dc:type rdf:resource="http://purl.org/dc/dcmitype/StillImage"/>
    <dc:date>2026-06-24T00:28:04.983513</dc:date>
    <dc:format>image/svg+xml</dc:format>
    <dc:creator>
     <cc:Agent>
      <dc:title>Matplotlib v3.7.2, https://matplotlib.org/</dc:title>
     </cc:Agent>
    </dc:creator>
   </cc:Work>
  </rdf:RDF>
 </metadata>
 <defs>
  <style type="text/css">*{stroke-linejoin: round; stroke-linecap: butt}</style>
 </defs>
 <g id="figure_1">
  <g id="patch_1">
   <path d="M 0 344.923216
L 748.962216 344.923216
L 748.962216 0
L 0 0
z
" style="fill: #ffffff"/>
  </g>
  <g id="axes_1">
   <g id="patch_2">
    <path d="M 56.370313 321.045091
L 358.029403 321.045091
L 358.029403 110.334545
L 56.370313 110.334545
z
" style="fill: #ffffff"/>
   </g>
   <g id="matplotlib.axis_1">
    <g id="xtick_1">
     <g id="line2d_1">
      <path d="M 56.370313 321.045091
L 56.370313 110.334545
" clip-path="url(#p54a3577fb7)" style="fill: none; stroke: #e5e7eb; stroke-width: 0.8; stroke-linecap: square"/>
     </g>
     <g id="line2d_2">
      <defs>
       <path id="mba73f52f54" d="M 0 0
L 0 3.5
" style="stroke: #334155; stroke-width: 0.8"/>
      </defs>
      <g>
       <use xlink:href="#mba73f52f54" x="56.370313" y="321.045091" style="fill: #334155; stroke: #334155; stroke-width: 0.8"/>
      </g>
     </g>
     <g id="text_1">
      <!-- 0.15 -->
      <g style="fill: #334155" transform="translate(45.2375 335.643528) scale(0.1 -0.1)">
       <defs>
        <path id="DejaVuSans-30" d="M 2034 4250
Q 1547 4250 1301 3770
Q 1056 3291 1056 2328
Q 1056 1369 1301 889
Q 1547 409 2034 409
Q 2525 409 2770 889
Q 3016 1369 3016 2328
Q 3016 3291 2770 3770
Q 2525 4250 2034 4250
z
M 2034 4750
Q 2819 4750 3233 4129
Q 3647 3509 3647 2328
Q 3647 1150 3233 529
Q 2819 -91 2034 -91
Q 1250 -91 836 529
Q 422 1150 422 2328
Q 422 3509 836 4129
Q 1250 4750 2034 4750
z
" transform="scale(0.015625)"/>
        <path id="DejaVuSans-2e" d="M 684 794
L 1344 794
L 1344 0
L 684 0
L 684 794
z
" transform="scale(0.015625)"/>
        <path id="DejaVuSans-31" d="M 794 531
L 1825 531
L 1825 4091
L 703 3866
L 703 4441
L 1819 4666
L 2450 4666
L 2450 531
L 3481 531
L 3481 0
L 794 0
L 794 531
z
" transform="scale(0.015625)"/>
        <path id="DejaVuSans-35" d="M 691 4666
L 3169 4666
L 3169 4134
L 1269 4134
L 1269 2991
Q 1406 3038 1543 3061
Q 1681 3084 1819 3084
Q 2600 3084 3056 2656
Q 3513 2228 3513 1497
Q 3513 744 3044 326
Q 2575 -91 1722 -91
Q 1428 -91 1123 -41
Q 819 9 494 109
L 494 744
Q 775 591 1075 516
Q 1375 441 1709 441
Q 2250 441 2565 725
Q 2881 1009 2881 1497
Q 2881 1984 2565 2268
Q 2250 2553 1709 2553
Q 1456 2553 1204 2497
Q 953 2441 691 2322
L 691 4666
z
" transform="scale(0.015625)"/>
       </defs>
       <use xlink:href="#DejaVuSans-30"/>
       <use xlink:href="#DejaVuSans-2e" x="63.623047"/>
       <use xlink:href="#DejaVuSans-31" x="95.410156"/>
       <use xlink:href="#DejaVuSans-35" x="159.033203"/>
      </g>
     </g>
    </g>
    <g id="xtick_2">
     <g id="line2d_3">
      <path d="M 99.464468 321.045091
L 99.464468 110.334545
" clip-path="url(#p54a3577fb7)" style="fill: none; stroke: #e5e7eb; stroke-width: 0.8; stroke-linecap: square"/>
     </g>
     <g id="line2d_4">
      <g>
       <use xlink:href="#mba73f52f54" x="99.464468" y="321.045091" style="fill: #334155; stroke: #334155; stroke-width: 0.8"/>
      </g>
     </g>
     <g id="text_2">
      <!-- 0.20 -->
      <g style="fill: #334155" transform="translate(88.331656 335.643528) scale(0.1 -0.1)">
       <defs>
        <path id="DejaVuSans-32" d="M 1228 531
L 3431 531
L 3431 0
L 469 0
L 469 531
Q 828 903 1448 1529
Q 2069 2156 2228 2338
Q 2531 2678 2651 2914
Q 2772 3150 2772 3378
Q 2772 3750 2511 3984
Q 2250 4219 1831 4219
Q 1534 4219 1204 4116
Q 875 4013 500 3803
L 500 4441
Q 881 4594 1212 4672
Q 1544 4750 1819 4750
Q 2544 4750 2975 4387
Q 3406 4025 3406 3419
Q 3406 3131 3298 2873
Q 3191 2616 2906 2266
Q 2828 2175 2409 1742
Q 1991 1309 1228 531
z
" transform="scale(0.015625)"/>
       </defs>
       <use xlink:href="#DejaVuSans-30"/>
       <use xlink:href="#DejaVuSans-2e" x="63.623047"/>
       <use xlink:href="#DejaVuSans-32" x="95.410156"/>
       <use xlink:href="#DejaVuSans-30" x="159.033203"/>
      </g>
     </g>
    </g>
    <g id="xtick_3">
     <g id="line2d_5">
      <path d="M 142.558624 321.045091
L 142.558624 110.334545
" clip-path="url(#p54a3577fb7)" style="fill: none; stroke: #e5e7eb; stroke-width: 0.8; stroke-linecap: square"/>
     </g>
     <g id="line2d_6">
      <g>
       <use xlink:href="#mba73f52f54" x="142.558624" y="321.045091" style="fill: #334155; stroke: #334155; stroke-width: 0.8"/>
      </g>
     </g>
     <g id="text_3">
      <!-- 0.25 -->
      <g style="fill: #334155" transform="translate(131.425812 335.643528) scale(0.1 -0.1)">
       <use xlink:href="#DejaVuSans-30"/>
       <use xlink:href="#DejaVuSans-2e" x="63.623047"/>
       <use xlink:href="#DejaVuSans-32" x="95.410156"/>
       <use xlink:href="#DejaVuSans-35" x="159.033203"/>
      </g>
     </g>
    </g>
    <g id="xtick_4">
     <g id="line2d_7">
      <path d="M 185.65278 321.045091
L 185.65278 110.334545
" clip-path="url(#p54a3577fb7)" style="fill: none; stroke: #e5e7eb; stroke-width: 0.8; stroke-linecap: square"/>
     </g>
     <g id="line2d_8">
      <g>
       <use xlink:href="#mba73f52f54" x="185.65278" y="321.045091" style="fill: #334155; stroke: #334155; stroke-width: 0.8"/>
      </g>
     </g>
     <g id="text_4">
      <!-- 0.30 -->
      <g style="fill: #334155" transform="translate(174.519968 335.643528) scale(0.1 -0.1)">
       <defs>
        <path id="DejaVuSans-33" d="M 2597 2516
Q 3050 2419 3304 2112
Q 3559 1806 3559 1356
Q 3559 666 3084 287
Q 2609 -91 1734 -91
Q 1441 -91 1130 -33
Q 819 25 488 141
L 488 750
Q 750 597 1062 519
Q 1375 441 1716 441
Q 2309 441 2620 675
Q 2931 909 2931 1356
Q 2931 1769 2642 2001
Q 2353 2234 1838 2234
L 1294 2234
L 1294 2753
L 1863 2753
Q 2328 2753 2575 2939
Q 2822 3125 2822 3475
Q 2822 3834 2567 4026
Q 2313 4219 1838 4219
Q 1578 4219 1281 4162
Q 984 4106 628 3988
L 628 4550
Q 988 4650 1302 4700
Q 1616 4750 1894 4750
Q 2613 4750 3031 4423
Q 3450 4097 3450 3541
Q 3450 3153 3228 2886
Q 3006 2619 2597 2516
z
" transform="scale(0.015625)"/>
       </defs>
       <use xlink:href="#DejaVuSans-30"/>
       <use xlink:href="#DejaVuSans-2e" x="63.623047"/>
       <use xlink:href="#DejaVuSans-33" x="95.410156"/>
       <use xlink:href="#DejaVuSans-30" x="159.033203"/>
      </g>
     </g>
    </g>
    <g id="xtick_5">
     <g id="line2d_9">
      <path d="M 228.746936 321.045091
L 228.746936 110.334545
" clip-path="url(#p54a3577fb7)" style="fill: none; stroke: #e5e7eb; stroke-width: 0.8; stroke-linecap: square"/>
     </g>
     <g id="line2d_10">
      <g>
       <use xlink:href="#mba73f52f54" x="228.746936" y="321.045091" style="fill: #334155; stroke: #334155; stroke-width: 0.8"/>
      </g>
     </g>
     <g id="text_5">
      <!-- 0.35 -->
      <g style="fill: #334155" transform="translate(217.614123 335.643528) scale(0.1 -0.1)">
       <use xlink:href="#DejaVuSans-30"/>
       <use xlink:href="#DejaVuSans-2e" x="63.623047"/>
       <use xlink:href="#DejaVuSans-33" x="95.410156"/>
       <use xlink:href="#DejaVuSans-35" x="159.033203"/>
      </g>
     </g>
    </g>
    <g id="xtick_6">
     <g id="line2d_11">
      <path d="M 271.841092 321.045091
L 271.841092 110.334545
" clip-path="url(#p54a3577fb7)" style="fill: none; stroke: #e5e7eb; stroke-width: 0.8; stroke-linecap: square"/>
     </g>
     <g id="line2d_12">
      <g>
       <use xlink:href="#mba73f52f54" x="271.841092" y="321.045091" style="fill: #334155; stroke: #334155; stroke-width: 0.8"/>
      </g>
     </g>
     <g id="text_6">
      <!-- 0.40 -->
      <g style="fill: #334155" transform="translate(260.708279 335.643528) scale(0.1 -0.1)">
       <defs>
        <path id="DejaVuSans-34" d="M 2419 4116
L 825 1625
L 2419 1625
L 2419 4116
z
M 2253 4666
L 3047 4666
L 3047 1625
L 3713 1625
L 3713 1100
L 3047 1100
L 3047 0
L 2419 0
L 2419 1100
L 313 1100
L 313 1709
L 2253 4666
z
" transform="scale(0.015625)"/>
       </defs>
       <use xlink:href="#DejaVuSans-30"/>
       <use xlink:href="#DejaVuSans-2e" x="63.623047"/>
       <use xlink:href="#DejaVuSans-34" x="95.410156"/>
       <use xlink:href="#DejaVuSans-30" x="159.033203"/>
      </g>
     </g>
    </g>
    <g id="xtick_7">
     <g id="line2d_13">
      <path d="M 314.935248 321.045091
L 314.935248 110.334545
" clip-path="url(#p54a3577fb7)" style="fill: none; stroke: #e5e7eb; stroke-width: 0.8; stroke-linecap: square"/>
     </g>
     <g id="line2d_14">
      <g>
       <use xlink:href="#mba73f52f54" x="314.935248" y="321.045091" style="fill: #334155; stroke: #334155; stroke-width: 0.8"/>
      </g>
     </g>
     <g id="text_7">
      <!-- 0.45 -->
      <g style="fill: #334155" transform="translate(303.802435 335.643528) scale(0.1 -0.1)">
       <use xlink:href="#DejaVuSans-30"/>
       <use xlink:href="#DejaVuSans-2e" x="63.623047"/>
       <use xlink:href="#DejaVuSans-34" x="95.410156"/>
       <use xlink:href="#DejaVuSans-35" x="159.033203"/>
      </g>
     </g>
    </g>
    <g id="xtick_8">
     <g id="line2d_15">
      <path d="M 358.029403 321.045091
L 358.029403 110.334545
" clip-path="url(#p54a3577fb7)" style="fill: none; stroke: #e5e7eb; stroke-width: 0.8; stroke-linecap: square"/>
     </g>
     <g id="line2d_16">
      <g>
       <use xlink:href="#mba73f52f54" x="358.029403" y="321.045091" style="fill: #334155; stroke: #334155; stroke-width: 0.8"/>
      </g>
     </g>
     <g id="text_8">
      <!-- 0.50 -->
      <g style="fill: #334155" transform="translate(346.896591 335.643528) scale(0.1 -0.1)">
       <use xlink:href="#DejaVuSans-30"/>
       <use xlink:href="#DejaVuSans-2e" x="63.623047"/>
       <use xlink:href="#DejaVuSans-35" x="95.410156"/>
       <use xlink:href="#DejaVuSans-30" x="159.033203"/>
      </g>
     </g>
    </g>
   </g>
   <g id="matplotlib.axis_2">
    <g id="ytick_1">
     <g id="line2d_17">
      <defs>
       <path id="m3182b6098d" d="M 0 0
L -3.5 0
" style="stroke: #334155; stroke-width: 0.8"/>
      </defs>
      <g>
       <use xlink:href="#m3182b6098d" x="56.370313" y="153.716128" style="fill: #334155; stroke: #334155; stroke-width: 0.8"/>
      </g>
     </g>
     <g id="text_9">
      <!-- MLP -->
      <g style="fill: #334155" transform="translate(29.140625 157.515347) scale(0.1 -0.1)">
       <defs>
        <path id="DejaVuSans-4d" d="M 628 4666
L 1569 4666
L 2759 1491
L 3956 4666
L 4897 4666
L 4897 0
L 4281 0
L 4281 4097
L 3078 897
L 2444 897
L 1241 4097
L 1241 0
L 628 0
L 628 4666
z
" transform="scale(0.015625)"/>
        <path id="DejaVuSans-4c" d="M 628 4666
L 1259 4666
L 1259 531
L 3531 531
L 3531 0
L 628 0
L 628 4666
z
" transform="scale(0.015625)"/>
        <path id="DejaVuSans-50" d="M 1259 4147
L 1259 2394
L 2053 2394
Q 2494 2394 2734 2622
Q 2975 2850 2975 3272
Q 2975 3691 2734 3919
Q 2494 4147 2053 4147
L 1259 4147
z
M 628 4666
L 2053 4666
Q 2838 4666 3239 4311
Q 3641 3956 3641 3272
Q 3641 2581 3239 2228
Q 2838 1875 2053 1875
L 1259 1875
L 1259 0
L 628 0
L 628 4666
z
" transform="scale(0.015625)"/>
       </defs>
       <use xlink:href="#DejaVuSans-4d"/>
       <use xlink:href="#DejaVuSans-4c" x="86.279297"/>
       <use xlink:href="#DejaVuSans-50" x="141.992188"/>
      </g>
     </g>
    </g>
    <g id="ytick_2">
     <g id="line2d_18">
      <g>
       <use xlink:href="#m3182b6098d" x="56.370313" y="277.663508" style="fill: #334155; stroke: #334155; stroke-width: 0.8"/>
      </g>
     </g>
     <g id="text_10">
      <!-- TextCNN -->
      <g style="fill: #334155" transform="translate(7.2 281.462727) scale(0.1 -0.1)">
       <defs>
        <path id="DejaVuSans-54" d="M -19 4666
L 3928 4666
L 3928 4134
L 2272 4134
L 2272 0
L 1638 0
L 1638 4134
L -19 4134
L -19 4666
z
" transform="scale(0.015625)"/>
        <path id="DejaVuSans-65" d="M 3597 1894
L 3597 1613
L 953 1613
Q 991 1019 1311 708
Q 1631 397 2203 397
Q 2534 397 2845 478
Q 3156 559 3463 722
L 3463 178
Q 3153 47 2828 -22
Q 2503 -91 2169 -91
Q 1331 -91 842 396
Q 353 884 353 1716
Q 353 2575 817 3079
Q 1281 3584 2069 3584
Q 2775 3584 3186 3129
Q 3597 2675 3597 1894
z
M 3022 2063
Q 3016 2534 2758 2815
Q 2500 3097 2075 3097
Q 1594 3097 1305 2825
Q 1016 2553 972 2059
L 3022 2063
z
" transform="scale(0.015625)"/>
        <path id="DejaVuSans-78" d="M 3513 3500
L 2247 1797
L 3578 0
L 2900 0
L 1881 1375
L 863 0
L 184 0
L 1544 1831
L 300 3500
L 978 3500
L 1906 2253
L 2834 3500
L 3513 3500
z
" transform="scale(0.015625)"/>
        <path id="DejaVuSans-74" d="M 1172 4494
L 1172 3500
L 2356 3500
L 2356 3053
L 1172 3053
L 1172 1153
Q 1172 725 1289 603
Q 1406 481 1766 481
L 2356 481
L 2356 0
L 1766 0
Q 1100 0 847 248
Q 594 497 594 1153
L 594 3053
L 172 3053
L 172 3500
L 594 3500
L 594 4494
L 1172 4494
z
" transform="scale(0.015625)"/>
        <path id="DejaVuSans-43" d="M 4122 4306
L 4122 3641
Q 3803 3938 3442 4084
Q 3081 4231 2675 4231
Q 1875 4231 1450 3742
Q 1025 3253 1025 2328
Q 1025 1406 1450 917
Q 1875 428 2675 428
Q 3081 428 3442 575
Q 3803 722 4122 1019
L 4122 359
Q 3791 134 3420 21
Q 3050 -91 2638 -91
Q 1578 -91 968 557
Q 359 1206 359 2328
Q 359 3453 968 4101
Q 1578 4750 2638 4750
Q 3056 4750 3426 4639
Q 3797 4528 4122 4306
z
" transform="scale(0.015625)"/>
        <path id="DejaVuSans-4e" d="M 628 4666
L 1478 4666
L 3547 763
L 3547 4666
L 4159 4666
L 4159 0
L 3309 0
L 1241 3903
L 1241 0
L 628 0
L 628 4666
z
" transform="scale(0.015625)"/>
       </defs>
       <use xlink:href="#DejaVuSans-54"/>
       <use xlink:href="#DejaVuSans-65" x="44.083984"/>
       <use xlink:href="#DejaVuSans-78" x="103.857422"/>
       <use xlink:href="#DejaVuSans-74" x="163.037109"/>
       <use xlink:href="#DejaVuSans-43" x="202.246094"/>
       <use xlink:href="#DejaVuSans-4e" x="272.070312"/>
       <use xlink:href="#DejaVuSans-4e" x="346.875"/>
      </g>
     </g>
    </g>
   </g>
   <g id="line2d_19">
    <path d="M 92.569403 153.716128
L 123.597196 153.716128
" clip-path="url(#p54a3577fb7)" style="fill: none; stroke: #94a3b8; stroke-opacity: 0.7; stroke-width: 2.4; stroke-linecap: square"/>
   </g>
   <g id="line2d_20">
    <path d="M 75.331741 277.663508
L 82.226806 277.663508
" clip-path="url(#p54a3577fb7)" style="fill: none; stroke: #94a3b8; stroke-opacity: 0.7; stroke-width: 2.4; stroke-linecap: square"/>
   </g>
   <g id="patch_3">
    <path d="M 56.370313 321.045091
L 56.370313 110.334545
" style="fill: none; stroke: #cbd5e1; stroke-width: 0.8; stroke-linejoin: miter; stroke-linecap: square"/>
   </g>
   <g id="patch_4">
    <path d="M 56.370313 321.045091
L 358.029403 321.045091
" style="fill: none; stroke: #cbd5e1; stroke-width: 0.8; stroke-linejoin: miter; stroke-linecap: square"/>
   </g>
   <g id="PathCollection_1">
    <defs>
     <path id="m4f63cf532c" d="M 0 4.636809
C 1.229696 4.636809 2.409193 4.148246 3.278719 3.278719
C 4.148246 2.409193 4.636809 1.229696 4.636809 0
C 4.636809 -1.229696 4.148246 -2.409193 3.278719 -3.278719
C 2.409193 -4.148246 1.229696 -4.636809 0 -4.636809
C -1.229696 -4.636809 -2.409193 -4.148246 -3.278719 -3.278719
C -4.148246 -2.409193 -4.636809 -1.229696 -4.636809 0
C -4.636809 1.229696 -4.148246 2.409193 -3.278719 3.278719
C -2.409193 4.148246 -1.229696 4.636809 0 4.636809
z
" style="stroke: #94a3b8; stroke-width: 2.2"/>
    </defs>
    <g clip-path="url(#p54a3577fb7)">
     <use xlink:href="#m4f63cf532c" x="92.569403" y="153.716128" style="fill: #ffffff; stroke: #94a3b8; stroke-width: 2.2"/>
    </g>
   </g>
   <g id="text_11">
    <!-- 0.192 -->
    <g style="fill: #64748b" transform="translate(58.18526 136.367985) scale(0.09 -0.09)">
     <defs>
      <path id="DejaVuSans-39" d="M 703 97
L 703 672
Q 941 559 1184 500
Q 1428 441 1663 441
Q 2288 441 2617 861
Q 2947 1281 2994 2138
Q 2813 1869 2534 1725
Q 2256 1581 1919 1581
Q 1219 1581 811 2004
Q 403 2428 403 3163
Q 403 3881 828 4315
Q 1253 4750 1959 4750
Q 2769 4750 3195 4129
Q 3622 3509 3622 2328
Q 3622 1225 3098 567
Q 2575 -91 1691 -91
Q 1453 -91 1209 -44
Q 966 3 703 97
z
M 1959 2075
Q 2384 2075 2632 2365
Q 2881 2656 2881 3163
Q 2881 3666 2632 3958
Q 2384 4250 1959 4250
Q 1534 4250 1286 3958
Q 1038 3666 1038 3163
Q 1038 2656 1286 2365
Q 1534 2075 1959 2075
z
" transform="scale(0.015625)"/>
     </defs>
     <use xlink:href="#DejaVuSans-30"/>
     <use xlink:href="#DejaVuSans-2e" x="63.623047"/>
     <use xlink:href="#DejaVuSans-31" x="95.410156"/>
     <use xlink:href="#DejaVuSans-39" x="159.033203"/>
     <use xlink:href="#DejaVuSans-32" x="222.65625"/>
    </g>
   </g>
   <g id="text_12">
    <!-- 0.228 -->
    <g style="fill: #2563eb" transform="translate(132.216027 136.367985) scale(0.09 -0.09)">
     <defs>
      <path id="DejaVuSans-38" d="M 2034 2216
Q 1584 2216 1326 1975
Q 1069 1734 1069 1313
Q 1069 891 1326 650
Q 1584 409 2034 409
Q 2484 409 2743 651
Q 3003 894 3003 1313
Q 3003 1734 2745 1975
Q 2488 2216 2034 2216
z
M 1403 2484
Q 997 2584 770 2862
Q 544 3141 544 3541
Q 544 4100 942 4425
Q 1341 4750 2034 4750
Q 2731 4750 3128 4425
Q 3525 4100 3525 3541
Q 3525 3141 3298 2862
Q 3072 2584 2669 2484
Q 3125 2378 3379 2068
Q 3634 1759 3634 1313
Q 3634 634 3220 271
Q 2806 -91 2034 -91
Q 1263 -91 848 271
Q 434 634 434 1313
Q 434 1759 690 2068
Q 947 2378 1403 2484
z
M 1172 3481
Q 1172 3119 1398 2916
Q 1625 2713 2034 2713
Q 2441 2713 2670 2916
Q 2900 3119 2900 3481
Q 2900 3844 2670 4047
Q 2441 4250 2034 4250
Q 1625 4250 1398 4047
Q 1172 3844 1172 3481
z
" transform="scale(0.015625)"/>
     </defs>
     <use xlink:href="#DejaVuSans-30"/>
     <use xlink:href="#DejaVuSans-2e" x="63.623047"/>
     <use xlink:href="#DejaVuSans-32" x="95.410156"/>
     <use xlink:href="#DejaVuSans-32" x="159.033203"/>
     <use xlink:href="#DejaVuSans-38" x="222.65625"/>
    </g>
   </g>
   <g id="PathCollection_2">
    <g clip-path="url(#p54a3577fb7)">
     <use xlink:href="#m4f63cf532c" x="75.331741" y="277.663508" style="fill: #ffffff; stroke: #94a3b8; stroke-width: 2.2"/>
    </g>
   </g>
   <g id="text_13">
    <!-- 0.172 -->
    <g style="fill: #64748b" transform="translate(40.947597 260.315365) scale(0.09 -0.09)">
     <defs>
      <path id="DejaVuSans-37" d="M 525 4666
L 3525 4666
L 3525 4397
L 1831 0
L 1172 0
L 2766 4134
L 525 4134
L 525 4666
z
" transform="scale(0.015625)"/>
     </defs>
     <use xlink:href="#DejaVuSans-30"/>
     <use xlink:href="#DejaVuSans-2e" x="63.623047"/>
     <use xlink:href="#DejaVuSans-31" x="95.410156"/>
     <use xlink:href="#DejaVuSans-37" x="159.033203"/>
     <use xlink:href="#DejaVuSans-32" x="222.65625"/>
    </g>
   </g>
   <g id="text_14">
    <!-- 0.180 -->
    <g style="fill: #2563eb" transform="translate(90.845637 260.315365) scale(0.09 -0.09)">
     <use xlink:href="#DejaVuSans-30"/>
     <use xlink:href="#DejaVuSans-2e" x="63.623047"/>
     <use xlink:href="#DejaVuSans-31" x="95.410156"/>
     <use xlink:href="#DejaVuSans-38" x="159.033203"/>
     <use xlink:href="#DejaVuSans-30" x="222.65625"/>
    </g>
   </g>
   <g id="text_15">
    <!-- Recall@1 -->
    <g style="fill: #0f172a" transform="translate(174.067124 104.334545) scale(0.13 -0.13)">
     <defs>
      <path id="DejaVuSans-Bold-52" d="M 2297 2597
Q 2675 2597 2839 2737
Q 3003 2878 3003 3200
Q 3003 3519 2839 3656
Q 2675 3794 2297 3794
L 1791 3794
L 1791 2597
L 2297 2597
z
M 1791 1766
L 1791 0
L 588 0
L 588 4666
L 2425 4666
Q 3347 4666 3776 4356
Q 4206 4047 4206 3378
Q 4206 2916 3982 2619
Q 3759 2322 3309 2181
Q 3556 2125 3751 1926
Q 3947 1728 4147 1325
L 4800 0
L 3519 0
L 2950 1159
Q 2778 1509 2601 1637
Q 2425 1766 2131 1766
L 1791 1766
z
" transform="scale(0.015625)"/>
      <path id="DejaVuSans-Bold-65" d="M 4031 1759
L 4031 1441
L 1416 1441
Q 1456 1047 1700 850
Q 1944 653 2381 653
Q 2734 653 3104 758
Q 3475 863 3866 1075
L 3866 213
Q 3469 63 3072 -14
Q 2675 -91 2278 -91
Q 1328 -91 801 392
Q 275 875 275 1747
Q 275 2603 792 3093
Q 1309 3584 2216 3584
Q 3041 3584 3536 3087
Q 4031 2591 4031 1759
z
M 2881 2131
Q 2881 2450 2695 2645
Q 2509 2841 2209 2841
Q 1884 2841 1681 2658
Q 1478 2475 1428 2131
L 2881 2131
z
" transform="scale(0.015625)"/>
      <path id="DejaVuSans-Bold-63" d="M 3366 3391
L 3366 2478
Q 3138 2634 2908 2709
Q 2678 2784 2431 2784
Q 1963 2784 1702 2511
Q 1441 2238 1441 1747
Q 1441 1256 1702 982
Q 1963 709 2431 709
Q 2694 709 2930 787
Q 3166 866 3366 1019
L 3366 103
Q 3103 6 2833 -42
Q 2563 -91 2291 -91
Q 1344 -91 809 395
Q 275 881 275 1747
Q 275 2613 809 3098
Q 1344 3584 2291 3584
Q 2566 3584 2833 3536
Q 3100 3488 3366 3391
z
" transform="scale(0.015625)"/>
      <path id="DejaVuSans-Bold-61" d="M 2106 1575
Q 1756 1575 1579 1456
Q 1403 1338 1403 1106
Q 1403 894 1545 773
Q 1688 653 1941 653
Q 2256 653 2472 879
Q 2688 1106 2688 1447
L 2688 1575
L 2106 1575
z
M 3816 1997
L 3816 0
L 2688 0
L 2688 519
Q 2463 200 2181 54
Q 1900 -91 1497 -91
Q 953 -91 614 226
Q 275 544 275 1050
Q 275 1666 698 1953
Q 1122 2241 2028 2241
L 2688 2241
L 2688 2328
Q 2688 2594 2478 2717
Q 2269 2841 1825 2841
Q 1466 2841 1156 2769
Q 847 2697 581 2553
L 581 3406
Q 941 3494 1303 3539
Q 1666 3584 2028 3584
Q 2975 3584 3395 3211
Q 3816 2838 3816 1997
z
" transform="scale(0.015625)"/>
      <path id="DejaVuSans-Bold-6c" d="M 538 4863
L 1656 4863
L 1656 0
L 538 0
L 538 4863
z
" transform="scale(0.015625)"/>
      <path id="DejaVuSans-Bold-40" d="M 2597 1684
Q 2597 1300 2761 1078
Q 2925 856 3206 856
Q 3484 856 3650 1079
Q 3816 1303 3816 1684
Q 3816 2063 3648 2283
Q 3481 2503 3200 2503
Q 2925 2503 2761 2283
Q 2597 2063 2597 1684
z
M 3878 744
Q 3784 522 3576 398
Q 3369 275 3091 275
Q 2553 275 2217 664
Q 1881 1053 1881 1678
Q 1881 2303 2218 2693
Q 2556 3084 3091 3084
Q 3369 3084 3576 2959
Q 3784 2834 3878 2613
L 3878 3022
L 4531 3022
L 4531 856
Q 4919 916 5141 1230
Q 5363 1544 5363 2034
Q 5363 2347 5272 2620
Q 5181 2894 4997 3122
Q 4700 3503 4254 3709
Q 3809 3916 3291 3916
Q 2928 3916 2597 3820
Q 2266 3725 1984 3541
Q 1522 3234 1264 2748
Q 1006 2263 1006 1697
Q 1006 1231 1173 823
Q 1341 416 1656 103
Q 1969 -203 2373 -364
Q 2778 -525 3238 -525
Q 3631 -525 4025 -378
Q 4419 -231 4697 19
L 5031 -488
Q 4641 -791 4180 -952
Q 3719 -1113 3244 -1113
Q 2666 -1113 2153 -908
Q 1641 -703 1241 -313
Q 841 78 631 592
Q 422 1106 422 1697
Q 422 2266 634 2781
Q 847 3297 1241 3688
Q 1634 4075 2157 4287
Q 2681 4500 3244 4500
Q 3944 4500 4516 4233
Q 5088 3966 5472 3463
Q 5706 3156 5826 2798
Q 5947 2441 5947 2047
Q 5947 1200 5437 731
Q 4928 263 4000 263
L 3878 263
L 3878 744
z
" transform="scale(0.015625)"/>
      <path id="DejaVuSans-Bold-31" d="M 750 831
L 1813 831
L 1813 3847
L 722 3622
L 722 4441
L 1806 4666
L 2950 4666
L 2950 831
L 4013 831
L 4013 0
L 750 0
L 750 831
z
" transform="scale(0.015625)"/>
     </defs>
     <use xlink:href="#DejaVuSans-Bold-52"/>
     <use xlink:href="#DejaVuSans-Bold-65" x="77.001953"/>
     <use xlink:href="#DejaVuSans-Bold-63" x="144.824219"/>
     <use xlink:href="#DejaVuSans-Bold-61" x="204.101562"/>
     <use xlink:href="#DejaVuSans-Bold-6c" x="271.582031"/>
     <use xlink:href="#DejaVuSans-Bold-6c" x="305.859375"/>
     <use xlink:href="#DejaVuSans-Bold-40" x="340.136719"/>
     <use xlink:href="#DejaVuSans-Bold-31" x="440.136719"/>
    </g>
   </g>
   <g id="PathCollection_3">
    <defs>
     <path id="m11957a9781" d="M 0 6.557439
L 6.557439 0
L 0 -6.557439
L -6.557439 0
z
" style="stroke: #ffffff; stroke-width: 1.1"/>
    </defs>
    <g clip-path="url(#p54a3577fb7)">
     <use xlink:href="#m11957a9781" x="123.597196" y="153.716128" style="fill: #2563eb; stroke: #ffffff; stroke-width: 1.1"/>
    </g>
   </g>
   <g id="PathCollection_4">
    <g clip-path="url(#p54a3577fb7)">
     <use xlink:href="#m11957a9781" x="82.226806" y="277.663508" style="fill: #2563eb; stroke: #ffffff; stroke-width: 1.1"/>
    </g>
   </g>
   <g id="legend_1">
    <g id="line2d_21">
     <path d="M 282.832528 123.432983
L 292.832528 123.432983
L 302.832528 123.432983
" style="fill: none"/>
     <defs>
      <path id="m8d974d9c13" d="M 0 3
C 0.795609 3 1.55874 2.683901 2.12132 2.12132
C 2.683901 1.55874 3 0.795609 3 0
C 3 -0.795609 2.683901 -1.55874 2.12132 -2.12132
C 1.55874 -2.683901 0.795609 -3 0 -3
C -0.795609 -3 -1.55874 -2.683901 -2.12132 -2.12132
C -2.683901 -1.55874 -3 -0.795609 -3 0
C -3 0.795609 -2.683901 1.55874 -2.12132 2.12132
C -1.55874 2.683901 -0.795609 3 0 3
z
" style="stroke: #94a3b8; stroke-width: 2"/>
     </defs>
     <g>
      <use xlink:href="#m8d974d9c13" x="292.832528" y="123.432983" style="fill: #ffffff; stroke: #94a3b8; stroke-width: 2"/>
     </g>
    </g>
    <g id="text_16">
     <!-- PyTorch -->
     <g transform="translate(310.832528 126.932983) scale(0.1 -0.1)">
      <defs>
       <path id="DejaVuSans-79" d="M 2059 -325
Q 1816 -950 1584 -1140
Q 1353 -1331 966 -1331
L 506 -1331
L 506 -850
L 844 -850
Q 1081 -850 1212 -737
Q 1344 -625 1503 -206
L 1606 56
L 191 3500
L 800 3500
L 1894 763
L 2988 3500
L 3597 3500
L 2059 -325
z
" transform="scale(0.015625)"/>
       <path id="DejaVuSans-6f" d="M 1959 3097
Q 1497 3097 1228 2736
Q 959 2375 959 1747
Q 959 1119 1226 758
Q 1494 397 1959 397
Q 2419 397 2687 759
Q 2956 1122 2956 1747
Q 2956 2369 2687 2733
Q 2419 3097 1959 3097
z
M 1959 3584
Q 2709 3584 3137 3096
Q 3566 2609 3566 1747
Q 3566 888 3137 398
Q 2709 -91 1959 -91
Q 1206 -91 779 398
Q 353 888 353 1747
Q 353 2609 779 3096
Q 1206 3584 1959 3584
z
" transform="scale(0.015625)"/>
       <path id="DejaVuSans-72" d="M 2631 2963
Q 2534 3019 2420 3045
Q 2306 3072 2169 3072
Q 1681 3072 1420 2755
Q 1159 2438 1159 1844
L 1159 0
L 581 0
L 581 3500
L 1159 3500
L 1159 2956
Q 1341 3275 1631 3429
Q 1922 3584 2338 3584
Q 2397 3584 2469 3576
Q 2541 3569 2628 3553
L 2631 2963
z
" transform="scale(0.015625)"/>
       <path id="DejaVuSans-63" d="M 3122 3366
L 3122 2828
Q 2878 2963 2633 3030
Q 2388 3097 2138 3097
Q 1578 3097 1268 2742
Q 959 2388 959 1747
Q 959 1106 1268 751
Q 1578 397 2138 397
Q 2388 397 2633 464
Q 2878 531 3122 666
L 3122 134
Q 2881 22 2623 -34
Q 2366 -91 2075 -91
Q 1284 -91 818 406
Q 353 903 353 1747
Q 353 2603 823 3093
Q 1294 3584 2113 3584
Q 2378 3584 2631 3529
Q 2884 3475 3122 3366
z
" transform="scale(0.015625)"/>
       <path id="DejaVuSans-68" d="M 3513 2113
L 3513 0
L 2938 0
L 2938 2094
Q 2938 2591 2744 2837
Q 2550 3084 2163 3084
Q 1697 3084 1428 2787
Q 1159 2491 1159 1978
L 1159 0
L 581 0
L 581 4863
L 1159 4863
L 1159 2956
Q 1366 3272 1645 3428
Q 1925 3584 2291 3584
Q 2894 3584 3203 3211
Q 3513 2838 3513 2113
z
" transform="scale(0.015625)"/>
      </defs>
      <use xlink:href="#DejaVuSans-50"/>
      <use xlink:href="#DejaVuSans-79" x="60.302734"/>
      <use xlink:href="#DejaVuSans-54" x="119.482422"/>
      <use xlink:href="#DejaVuSans-6f" x="163.566406"/>
      <use xlink:href="#DejaVuSans-72" x="224.748047"/>
      <use xlink:href="#DejaVuSans-63" x="263.611328"/>
      <use xlink:href="#DejaVuSans-68" x="318.591797"/>
     </g>
    </g>
    <g id="line2d_22">
     <path d="M 282.832528 138.111108
L 292.832528 138.111108
L 302.832528 138.111108
" style="fill: none"/>
     <defs>
      <path id="mb057e45290" d="M 0 4.242641
L 4.242641 0
L 0 -4.242641
L -4.242641 0
z
" style="stroke: #2563eb; stroke-linejoin: miter"/>
     </defs>
     <g>
      <use xlink:href="#mb057e45290" x="292.832528" y="138.111108" style="fill: #2563eb; stroke: #2563eb; stroke-linejoin: miter"/>
     </g>
    </g>
    <g id="text_17">
     <!-- Jittor -->
     <g transform="translate(310.832528 141.611108) scale(0.1 -0.1)">
      <defs>
       <path id="DejaVuSans-4a" d="M 628 4666
L 1259 4666
L 1259 325
Q 1259 -519 939 -900
Q 619 -1281 -91 -1281
L -331 -1281
L -331 -750
L -134 -750
Q 284 -750 456 -515
Q 628 -281 628 325
L 628 4666
z
" transform="scale(0.015625)"/>
       <path id="DejaVuSans-69" d="M 603 3500
L 1178 3500
L 1178 0
L 603 0
L 603 3500
z
M 603 4863
L 1178 4863
L 1178 4134
L 603 4134
L 603 4863
z
" transform="scale(0.015625)"/>
      </defs>
      <use xlink:href="#DejaVuSans-4a"/>
      <use xlink:href="#DejaVuSans-69" x="29.492188"/>
      <use xlink:href="#DejaVuSans-74" x="57.275391"/>
      <use xlink:href="#DejaVuSans-74" x="96.484375"/>
      <use xlink:href="#DejaVuSans-6f" x="135.693359"/>
      <use xlink:href="#DejaVuSans-72" x="196.875"/>
     </g>
    </g>
   </g>
  </g>
  <g id="axes_2">
   <g id="patch_5">
    <path d="M 428.970313 321.045091
L 730.629403 321.045091
L 730.629403 110.334545
L 428.970313 110.334545
z
" style="fill: #ffffff"/>
   </g>
   <g id="matplotlib.axis_3">
    <g id="xtick_9">
     <g id="line2d_23">
      <path d="M 428.970313 321.045091
L 428.970313 110.334545
" clip-path="url(#p0e5a264e07)" style="fill: none; stroke: #e5e7eb; stroke-width: 0.8; stroke-linecap: square"/>
     </g>
     <g id="line2d_24">
      <g>
       <use xlink:href="#mba73f52f54" x="428.970313" y="321.045091" style="fill: #334155; stroke: #334155; stroke-width: 0.8"/>
      </g>
     </g>
     <g id="text_18">
      <!-- 0.15 -->
      <g style="fill: #334155" transform="translate(417.8375 335.643528) scale(0.1 -0.1)">
       <use xlink:href="#DejaVuSans-30"/>
       <use xlink:href="#DejaVuSans-2e" x="63.623047"/>
       <use xlink:href="#DejaVuSans-31" x="95.410156"/>
       <use xlink:href="#DejaVuSans-35" x="159.033203"/>
      </g>
     </g>
    </g>
    <g id="xtick_10">
     <g id="line2d_25">
      <path d="M 472.064468 321.045091
L 472.064468 110.334545
" clip-path="url(#p0e5a264e07)" style="fill: none; stroke: #e5e7eb; stroke-width: 0.8; stroke-linecap: square"/>
     </g>
     <g id="line2d_26">
      <g>
       <use xlink:href="#mba73f52f54" x="472.064468" y="321.045091" style="fill: #334155; stroke: #334155; stroke-width: 0.8"/>
      </g>
     </g>
     <g id="text_19">
      <!-- 0.20 -->
      <g style="fill: #334155" transform="translate(460.931656 335.643528) scale(0.1 -0.1)">
       <use xlink:href="#DejaVuSans-30"/>
       <use xlink:href="#DejaVuSans-2e" x="63.623047"/>
       <use xlink:href="#DejaVuSans-32" x="95.410156"/>
       <use xlink:href="#DejaVuSans-30" x="159.033203"/>
      </g>
     </g>
    </g>
    <g id="xtick_11">
     <g id="line2d_27">
      <path d="M 515.158624 321.045091
L 515.158624 110.334545
" clip-path="url(#p0e5a264e07)" style="fill: none; stroke: #e5e7eb; stroke-width: 0.8; stroke-linecap: square"/>
     </g>
     <g id="line2d_28">
      <g>
       <use xlink:href="#mba73f52f54" x="515.158624" y="321.045091" style="fill: #334155; stroke: #334155; stroke-width: 0.8"/>
      </g>
     </g>
     <g id="text_20">
      <!-- 0.25 -->
      <g style="fill: #334155" transform="translate(504.025812 335.643528) scale(0.1 -0.1)">
       <use xlink:href="#DejaVuSans-30"/>
       <use xlink:href="#DejaVuSans-2e" x="63.623047"/>
       <use xlink:href="#DejaVuSans-32" x="95.410156"/>
       <use xlink:href="#DejaVuSans-35" x="159.033203"/>
      </g>
     </g>
    </g>
    <g id="xtick_12">
     <g id="line2d_29">
      <path d="M 558.25278 321.045091
L 558.25278 110.334545
" clip-path="url(#p0e5a264e07)" style="fill: none; stroke: #e5e7eb; stroke-width: 0.8; stroke-linecap: square"/>
     </g>
     <g id="line2d_30">
      <g>
       <use xlink:href="#mba73f52f54" x="558.25278" y="321.045091" style="fill: #334155; stroke: #334155; stroke-width: 0.8"/>
      </g>
     </g>
     <g id="text_21">
      <!-- 0.30 -->
      <g style="fill: #334155" transform="translate(547.119968 335.643528) scale(0.1 -0.1)">
       <use xlink:href="#DejaVuSans-30"/>
       <use xlink:href="#DejaVuSans-2e" x="63.623047"/>
       <use xlink:href="#DejaVuSans-33" x="95.410156"/>
       <use xlink:href="#DejaVuSans-30" x="159.033203"/>
      </g>
     </g>
    </g>
    <g id="xtick_13">
     <g id="line2d_31">
      <path d="M 601.346936 321.045091
L 601.346936 110.334545
" clip-path="url(#p0e5a264e07)" style="fill: none; stroke: #e5e7eb; stroke-width: 0.8; stroke-linecap: square"/>
     </g>
     <g id="line2d_32">
      <g>
       <use xlink:href="#mba73f52f54" x="601.346936" y="321.045091" style="fill: #334155; stroke: #334155; stroke-width: 0.8"/>
      </g>
     </g>
     <g id="text_22">
      <!-- 0.35 -->
      <g style="fill: #334155" transform="translate(590.214123 335.643528) scale(0.1 -0.1)">
       <use xlink:href="#DejaVuSans-30"/>
       <use xlink:href="#DejaVuSans-2e" x="63.623047"/>
       <use xlink:href="#DejaVuSans-33" x="95.410156"/>
       <use xlink:href="#DejaVuSans-35" x="159.033203"/>
      </g>
     </g>
    </g>
    <g id="xtick_14">
     <g id="line2d_33">
      <path d="M 644.441092 321.045091
L 644.441092 110.334545
" clip-path="url(#p0e5a264e07)" style="fill: none; stroke: #e5e7eb; stroke-width: 0.8; stroke-linecap: square"/>
     </g>
     <g id="line2d_34">
      <g>
       <use xlink:href="#mba73f52f54" x="644.441092" y="321.045091" style="fill: #334155; stroke: #334155; stroke-width: 0.8"/>
      </g>
     </g>
     <g id="text_23">
      <!-- 0.40 -->
      <g style="fill: #334155" transform="translate(633.308279 335.643528) scale(0.1 -0.1)">
       <use xlink:href="#DejaVuSans-30"/>
       <use xlink:href="#DejaVuSans-2e" x="63.623047"/>
       <use xlink:href="#DejaVuSans-34" x="95.410156"/>
       <use xlink:href="#DejaVuSans-30" x="159.033203"/>
      </g>
     </g>
    </g>
    <g id="xtick_15">
     <g id="line2d_35">
      <path d="M 687.535248 321.045091
L 687.535248 110.334545
" clip-path="url(#p0e5a264e07)" style="fill: none; stroke: #e5e7eb; stroke-width: 0.8; stroke-linecap: square"/>
     </g>
     <g id="line2d_36">
      <g>
       <use xlink:href="#mba73f52f54" x="687.535248" y="321.045091" style="fill: #334155; stroke: #334155; stroke-width: 0.8"/>
      </g>
     </g>
     <g id="text_24">
      <!-- 0.45 -->
      <g style="fill: #334155" transform="translate(676.402435 335.643528) scale(0.1 -0.1)">
       <use xlink:href="#DejaVuSans-30"/>
       <use xlink:href="#DejaVuSans-2e" x="63.623047"/>
       <use xlink:href="#DejaVuSans-34" x="95.410156"/>
       <use xlink:href="#DejaVuSans-35" x="159.033203"/>
      </g>
     </g>
    </g>
    <g id="xtick_16">
     <g id="line2d_37">
      <path d="M 730.629403 321.045091
L 730.629403 110.334545
" clip-path="url(#p0e5a264e07)" style="fill: none; stroke: #e5e7eb; stroke-width: 0.8; stroke-linecap: square"/>
     </g>
     <g id="line2d_38">
      <g>
       <use xlink:href="#mba73f52f54" x="730.629403" y="321.045091" style="fill: #334155; stroke: #334155; stroke-width: 0.8"/>
      </g>
     </g>
     <g id="text_25">
      <!-- 0.50 -->
      <g style="fill: #334155" transform="translate(719.496591 335.643528) scale(0.1 -0.1)">
       <use xlink:href="#DejaVuSans-30"/>
       <use xlink:href="#DejaVuSans-2e" x="63.623047"/>
       <use xlink:href="#DejaVuSans-35" x="95.410156"/>
       <use xlink:href="#DejaVuSans-30" x="159.033203"/>
      </g>
     </g>
    </g>
   </g>
   <g id="matplotlib.axis_4">
    <g id="ytick_3">
     <g id="line2d_39">
      <g>
       <use xlink:href="#m3182b6098d" x="428.970313" y="153.716128" style="fill: #334155; stroke: #334155; stroke-width: 0.8"/>
      </g>
     </g>
     <g id="text_26">
      <!-- MLP -->
      <g style="fill: #334155" transform="translate(401.740625 157.515347) scale(0.1 -0.1)">
       <use xlink:href="#DejaVuSans-4d"/>
       <use xlink:href="#DejaVuSans-4c" x="86.279297"/>
       <use xlink:href="#DejaVuSans-50" x="141.992188"/>
      </g>
     </g>
    </g>
    <g id="ytick_4">
     <g id="line2d_40">
      <g>
       <use xlink:href="#m3182b6098d" x="428.970313" y="277.663508" style="fill: #334155; stroke: #334155; stroke-width: 0.8"/>
      </g>
     </g>
     <g id="text_27">
      <!-- TextCNN -->
      <g style="fill: #334155" transform="translate(379.8 281.462727) scale(0.1 -0.1)">
       <use xlink:href="#DejaVuSans-54"/>
       <use xlink:href="#DejaVuSans-65" x="44.083984"/>
       <use xlink:href="#DejaVuSans-78" x="103.857422"/>
       <use xlink:href="#DejaVuSans-74" x="163.037109"/>
       <use xlink:href="#DejaVuSans-43" x="202.246094"/>
       <use xlink:href="#DejaVuSans-4e" x="272.070312"/>
       <use xlink:href="#DejaVuSans-4e" x="346.875"/>
      </g>
     </g>
    </g>
   </g>
   <g id="line2d_41">
    <path d="M 685.403958 153.716128
L 704.561584 153.716128
" clip-path="url(#p0e5a264e07)" style="fill: none; stroke: #94a3b8; stroke-opacity: 0.7; stroke-width: 2.4; stroke-linecap: square"/>
   </g>
   <g id="line2d_42">
    <path d="M 684.370525 277.663508
L 667.680479 277.663508
" clip-path="url(#p0e5a264e07)" style="fill: none; stroke: #94a3b8; stroke-opacity: 0.7; stroke-width: 2.4; stroke-linecap: square"/>
   </g>
   <g id="patch_6">
    <path d="M 428.970313 321.045091
L 428.970313 110.334545
" style="fill: none; stroke: #cbd5e1; stroke-width: 0.8; stroke-linejoin: miter; stroke-linecap: square"/>
   </g>
   <g id="patch_7">
    <path d="M 428.970313 321.045091
L 730.629403 321.045091
" style="fill: none; stroke: #cbd5e1; stroke-width: 0.8; stroke-linejoin: miter; stroke-linecap: square"/>
   </g>
   <g id="PathCollection_5">
    <g clip-path="url(#p0e5a264e07)">
     <use xlink:href="#m4f63cf532c" x="685.403958" y="153.716128" style="fill: #ffffff; stroke: #94a3b8; stroke-width: 2.2"/>
    </g>
   </g>
   <g id="text_28">
    <!-- 0.448 -->
    <g style="fill: #64748b" transform="translate(651.019815 136.367985) scale(0.09 -0.09)">
     <use xlink:href="#DejaVuSans-30"/>
     <use xlink:href="#DejaVuSans-2e" x="63.623047"/>
     <use xlink:href="#DejaVuSans-34" x="95.410156"/>
     <use xlink:href="#DejaVuSans-34" x="159.033203"/>
     <use xlink:href="#DejaVuSans-38" x="222.65625"/>
    </g>
   </g>
   <g id="text_29">
    <!-- 0.470 -->
    <g style="fill: #2563eb" transform="translate(713.180415 136.367985) scale(0.09 -0.09)">
     <use xlink:href="#DejaVuSans-30"/>
     <use xlink:href="#DejaVuSans-2e" x="63.623047"/>
     <use xlink:href="#DejaVuSans-34" x="95.410156"/>
     <use xlink:href="#DejaVuSans-37" x="159.033203"/>
     <use xlink:href="#DejaVuSans-30" x="222.65625"/>
    </g>
   </g>
   <g id="PathCollection_6">
    <g clip-path="url(#p0e5a264e07)">
     <use xlink:href="#m4f63cf532c" x="684.370525" y="277.663508" style="fill: #ffffff; stroke: #94a3b8; stroke-width: 2.2"/>
    </g>
   </g>
   <g id="text_30">
    <!-- 0.446 -->
    <g style="fill: #64748b" transform="translate(649.986382 260.315365) scale(0.09 -0.09)">
     <defs>
      <path id="DejaVuSans-36" d="M 2113 2584
Q 1688 2584 1439 2293
Q 1191 2003 1191 1497
Q 1191 994 1439 701
Q 1688 409 2113 409
Q 2538 409 2786 701
Q 3034 994 3034 1497
Q 3034 2003 2786 2293
Q 2538 2584 2113 2584
z
M 3366 4563
L 3366 3988
Q 3128 4100 2886 4159
Q 2644 4219 2406 4219
Q 1781 4219 1451 3797
Q 1122 3375 1075 2522
Q 1259 2794 1537 2939
Q 1816 3084 2150 3084
Q 2853 3084 3261 2657
Q 3669 2231 3669 1497
Q 3669 778 3244 343
Q 2819 -91 2113 -91
Q 1303 -91 875 529
Q 447 1150 447 2328
Q 447 3434 972 4092
Q 1497 4750 2381 4750
Q 2619 4750 2861 4703
Q 3103 4656 3366 4563
z
" transform="scale(0.015625)"/>
     </defs>
     <use xlink:href="#DejaVuSans-30"/>
     <use xlink:href="#DejaVuSans-2e" x="63.623047"/>
     <use xlink:href="#DejaVuSans-34" x="95.410156"/>
     <use xlink:href="#DejaVuSans-34" x="159.033203"/>
     <use xlink:href="#DejaVuSans-36" x="222.65625"/>
    </g>
   </g>
   <g id="text_31">
    <!-- 0.427 -->
    <g style="fill: #2563eb" transform="translate(676.29931 260.315365) scale(0.09 -0.09)">
     <use xlink:href="#DejaVuSans-30"/>
     <use xlink:href="#DejaVuSans-2e" x="63.623047"/>
     <use xlink:href="#DejaVuSans-34" x="95.410156"/>
     <use xlink:href="#DejaVuSans-32" x="159.033203"/>
     <use xlink:href="#DejaVuSans-37" x="222.65625"/>
    </g>
   </g>
   <g id="text_32">
    <!-- NDCG@5 -->
    <g style="fill: #0f172a" transform="translate(547.836108 104.334545) scale(0.13 -0.13)">
     <defs>
      <path id="DejaVuSans-Bold-4e" d="M 588 4666
L 1931 4666
L 3628 1466
L 3628 4666
L 4769 4666
L 4769 0
L 3425 0
L 1728 3200
L 1728 0
L 588 0
L 588 4666
z
" transform="scale(0.015625)"/>
      <path id="DejaVuSans-Bold-44" d="M 1791 3756
L 1791 909
L 2222 909
Q 2959 909 3348 1275
Q 3738 1641 3738 2338
Q 3738 3031 3350 3393
Q 2963 3756 2222 3756
L 1791 3756
z
M 588 4666
L 1856 4666
Q 2919 4666 3439 4514
Q 3959 4363 4331 4000
Q 4659 3684 4818 3271
Q 4978 2859 4978 2338
Q 4978 1809 4818 1395
Q 4659 981 4331 666
Q 3956 303 3431 151
Q 2906 0 1856 0
L 588 0
L 588 4666
z
" transform="scale(0.015625)"/>
      <path id="DejaVuSans-Bold-43" d="M 4288 256
Q 3956 84 3597 -3
Q 3238 -91 2847 -91
Q 1681 -91 1000 561
Q 319 1213 319 2328
Q 319 3447 1000 4098
Q 1681 4750 2847 4750
Q 3238 4750 3597 4662
Q 3956 4575 4288 4403
L 4288 3438
Q 3953 3666 3628 3772
Q 3303 3878 2944 3878
Q 2300 3878 1931 3465
Q 1563 3053 1563 2328
Q 1563 1606 1931 1193
Q 2300 781 2944 781
Q 3303 781 3628 887
Q 3953 994 4288 1222
L 4288 256
z
" transform="scale(0.015625)"/>
      <path id="DejaVuSans-Bold-47" d="M 4781 347
Q 4331 128 3847 18
Q 3363 -91 2847 -91
Q 1681 -91 1000 561
Q 319 1213 319 2328
Q 319 3456 1012 4103
Q 1706 4750 2913 4750
Q 3378 4750 3804 4662
Q 4231 4575 4609 4403
L 4609 3438
Q 4219 3659 3833 3768
Q 3447 3878 3059 3878
Q 2341 3878 1952 3476
Q 1563 3075 1563 2328
Q 1563 1588 1938 1184
Q 2313 781 3003 781
Q 3191 781 3352 804
Q 3513 828 3641 878
L 3641 1784
L 2906 1784
L 2906 2591
L 4781 2591
L 4781 347
z
" transform="scale(0.015625)"/>
      <path id="DejaVuSans-Bold-35" d="M 678 4666
L 3669 4666
L 3669 3781
L 1638 3781
L 1638 3059
Q 1775 3097 1914 3117
Q 2053 3138 2203 3138
Q 3056 3138 3531 2711
Q 4006 2284 4006 1522
Q 4006 766 3489 337
Q 2972 -91 2053 -91
Q 1656 -91 1267 -14
Q 878 63 494 219
L 494 1166
Q 875 947 1217 837
Q 1559 728 1863 728
Q 2300 728 2551 942
Q 2803 1156 2803 1522
Q 2803 1891 2551 2103
Q 2300 2316 1863 2316
Q 1603 2316 1309 2248
Q 1016 2181 678 2041
L 678 4666
z
" transform="scale(0.015625)"/>
     </defs>
     <use xlink:href="#DejaVuSans-Bold-4e"/>
     <use xlink:href="#DejaVuSans-Bold-44" x="83.691406"/>
     <use xlink:href="#DejaVuSans-Bold-43" x="166.699219"/>
     <use xlink:href="#DejaVuSans-Bold-47" x="240.087891"/>
     <use xlink:href="#DejaVuSans-Bold-40" x="322.167969"/>
     <use xlink:href="#DejaVuSans-Bold-35" x="422.167969"/>
    </g>
   </g>
   <g id="PathCollection_7">
    <g clip-path="url(#p0e5a264e07)">
     <use xlink:href="#m11957a9781" x="704.561584" y="153.716128" style="fill: #2563eb; stroke: #ffffff; stroke-width: 1.1"/>
    </g>
   </g>
   <g id="PathCollection_8">
    <g clip-path="url(#p0e5a264e07)">
     <use xlink:href="#m11957a9781" x="667.680479" y="277.663508" style="fill: #2563eb; stroke: #ffffff; stroke-width: 1.1"/>
    </g>
   </g>
  </g>
  <g id="text_33">
   <!-- PyTorch/Jittor Alignment Baselines -->
   <g style="fill: #0f172a" transform="translate(11.635767 19.3575) scale(0.16 -0.16)">
    <defs>
     <path id="DejaVuSans-Bold-50" d="M 588 4666
L 2584 4666
Q 3475 4666 3951 4270
Q 4428 3875 4428 3144
Q 4428 2409 3951 2014
Q 3475 1619 2584 1619
L 1791 1619
L 1791 0
L 588 0
L 588 4666
z
M 1791 3794
L 1791 2491
L 2456 2491
Q 2806 2491 2997 2661
Q 3188 2831 3188 3144
Q 3188 3456 2997 3625
Q 2806 3794 2456 3794
L 1791 3794
z
" transform="scale(0.015625)"/>
     <path id="DejaVuSans-Bold-79" d="M 78 3500
L 1197 3500
L 2138 1125
L 2938 3500
L 4056 3500
L 2584 -331
Q 2363 -916 2067 -1148
Q 1772 -1381 1288 -1381
L 641 -1381
L 641 -647
L 991 -647
Q 1275 -647 1404 -556
Q 1534 -466 1606 -231
L 1638 -134
L 78 3500
z
" transform="scale(0.015625)"/>
     <path id="DejaVuSans-Bold-54" d="M 31 4666
L 4331 4666
L 4331 3756
L 2784 3756
L 2784 0
L 1581 0
L 1581 3756
L 31 3756
L 31 4666
z
" transform="scale(0.015625)"/>
     <path id="DejaVuSans-Bold-6f" d="M 2203 2784
Q 1831 2784 1636 2517
Q 1441 2250 1441 1747
Q 1441 1244 1636 976
Q 1831 709 2203 709
Q 2569 709 2762 976
Q 2956 1244 2956 1747
Q 2956 2250 2762 2517
Q 2569 2784 2203 2784
z
M 2203 3584
Q 3106 3584 3614 3096
Q 4122 2609 4122 1747
Q 4122 884 3614 396
Q 3106 -91 2203 -91
Q 1297 -91 786 396
Q 275 884 275 1747
Q 275 2609 786 3096
Q 1297 3584 2203 3584
z
" transform="scale(0.015625)"/>
     <path id="DejaVuSans-Bold-72" d="M 3138 2547
Q 2991 2616 2845 2648
Q 2700 2681 2553 2681
Q 2122 2681 1889 2404
Q 1656 2128 1656 1613
L 1656 0
L 538 0
L 538 3500
L 1656 3500
L 1656 2925
Q 1872 3269 2151 3426
Q 2431 3584 2822 3584
Q 2878 3584 2943 3579
Q 3009 3575 3134 3559
L 3138 2547
z
" transform="scale(0.015625)"/>
     <path id="DejaVuSans-Bold-68" d="M 4056 2131
L 4056 0
L 2931 0
L 2931 347
L 2931 1625
Q 2931 2084 2911 2256
Q 2891 2428 2841 2509
Q 2775 2619 2662 2680
Q 2550 2741 2406 2741
Q 2056 2741 1856 2470
Q 1656 2200 1656 1722
L 1656 0
L 538 0
L 538 4863
L 1656 4863
L 1656 2988
Q 1909 3294 2193 3439
Q 2478 3584 2822 3584
Q 3428 3584 3742 3212
Q 4056 2841 4056 2131
z
" transform="scale(0.015625)"/>
     <path id="DejaVuSans-Bold-2f" d="M 1644 4666
L 2338 4666
L 691 -594
L 0 -594
L 1644 4666
z
" transform="scale(0.015625)"/>
     <path id="DejaVuSans-Bold-4a" d="M 588 4666
L 1791 4666
L 1791 453
Q 1791 -419 1317 -850
Q 844 -1281 -116 -1281
L -359 -1281
L -359 -372
L -172 -372
Q 203 -372 395 -162
Q 588 47 588 453
L 588 4666
z
" transform="scale(0.015625)"/>
     <path id="DejaVuSans-Bold-69" d="M 538 3500
L 1656 3500
L 1656 0
L 538 0
L 538 3500
z
M 538 4863
L 1656 4863
L 1656 3950
L 538 3950
L 538 4863
z
" transform="scale(0.015625)"/>
     <path id="DejaVuSans-Bold-74" d="M 1759 4494
L 1759 3500
L 2913 3500
L 2913 2700
L 1759 2700
L 1759 1216
Q 1759 972 1856 886
Q 1953 800 2241 800
L 2816 800
L 2816 0
L 1856 0
Q 1194 0 917 276
Q 641 553 641 1216
L 641 2700
L 84 2700
L 84 3500
L 641 3500
L 641 4494
L 1759 4494
z
" transform="scale(0.015625)"/>
     <path id="DejaVuSans-Bold-20" transform="scale(0.015625)"/>
     <path id="DejaVuSans-Bold-41" d="M 3419 850
L 1538 850
L 1241 0
L 31 0
L 1759 4666
L 3194 4666
L 4922 0
L 3713 0
L 3419 850
z
M 1838 1716
L 3116 1716
L 2478 3572
L 1838 1716
z
" transform="scale(0.015625)"/>
     <path id="DejaVuSans-Bold-67" d="M 2919 594
Q 2688 288 2409 144
Q 2131 0 1766 0
Q 1125 0 706 504
Q 288 1009 288 1791
Q 288 2575 706 3076
Q 1125 3578 1766 3578
Q 2131 3578 2409 3434
Q 2688 3291 2919 2981
L 2919 3500
L 4044 3500
L 4044 353
Q 4044 -491 3511 -936
Q 2978 -1381 1966 -1381
Q 1638 -1381 1331 -1331
Q 1025 -1281 716 -1178
L 716 -306
Q 1009 -475 1290 -558
Q 1572 -641 1856 -641
Q 2406 -641 2662 -400
Q 2919 -159 2919 353
L 2919 594
z
M 2181 2772
Q 1834 2772 1640 2515
Q 1447 2259 1447 1791
Q 1447 1309 1634 1061
Q 1822 813 2181 813
Q 2531 813 2725 1069
Q 2919 1325 2919 1791
Q 2919 2259 2725 2515
Q 2531 2772 2181 2772
z
" transform="scale(0.015625)"/>
     <path id="DejaVuSans-Bold-6e" d="M 4056 2131
L 4056 0
L 2931 0
L 2931 347
L 2931 1631
Q 2931 2084 2911 2256
Q 2891 2428 2841 2509
Q 2775 2619 2662 2680
Q 2550 2741 2406 2741
Q 2056 2741 1856 2470
Q 1656 2200 1656 1722
L 1656 0
L 538 0
L 538 3500
L 1656 3500
L 1656 2988
Q 1909 3294 2193 3439
Q 2478 3584 2822 3584
Q 3428 3584 3742 3212
Q 4056 2841 4056 2131
z
" transform="scale(0.015625)"/>
     <path id="DejaVuSans-Bold-6d" d="M 3781 2919
Q 3994 3244 4286 3414
Q 4578 3584 4928 3584
Q 5531 3584 5847 3212
Q 6163 2841 6163 2131
L 6163 0
L 5038 0
L 5038 1825
Q 5041 1866 5042 1909
Q 5044 1953 5044 2034
Q 5044 2406 4934 2573
Q 4825 2741 4581 2741
Q 4263 2741 4089 2478
Q 3916 2216 3909 1719
L 3909 0
L 2784 0
L 2784 1825
Q 2784 2406 2684 2573
Q 2584 2741 2328 2741
Q 2006 2741 1831 2477
Q 1656 2213 1656 1722
L 1656 0
L 531 0
L 531 3500
L 1656 3500
L 1656 2988
Q 1863 3284 2130 3434
Q 2397 3584 2719 3584
Q 3081 3584 3359 3409
Q 3638 3234 3781 2919
z
" transform="scale(0.015625)"/>
     <path id="DejaVuSans-Bold-42" d="M 2456 2859
Q 2741 2859 2887 2984
Q 3034 3109 3034 3353
Q 3034 3594 2887 3720
Q 2741 3847 2456 3847
L 1791 3847
L 1791 2859
L 2456 2859
z
M 2497 819
Q 2859 819 3042 972
Q 3225 1125 3225 1434
Q 3225 1738 3044 1889
Q 2863 2041 2497 2041
L 1791 2041
L 1791 819
L 2497 819
z
M 3616 2497
Q 4003 2384 4215 2081
Q 4428 1778 4428 1338
Q 4428 663 3972 331
Q 3516 0 2584 0
L 588 0
L 588 4666
L 2394 4666
Q 3366 4666 3802 4372
Q 4238 4078 4238 3431
Q 4238 3091 4078 2852
Q 3919 2613 3616 2497
z
" transform="scale(0.015625)"/>
     <path id="DejaVuSans-Bold-73" d="M 3272 3391
L 3272 2541
Q 2913 2691 2578 2766
Q 2244 2841 1947 2841
Q 1628 2841 1473 2761
Q 1319 2681 1319 2516
Q 1319 2381 1436 2309
Q 1553 2238 1856 2203
L 2053 2175
Q 2913 2066 3209 1816
Q 3506 1566 3506 1031
Q 3506 472 3093 190
Q 2681 -91 1863 -91
Q 1516 -91 1145 -36
Q 775 19 384 128
L 384 978
Q 719 816 1070 734
Q 1422 653 1784 653
Q 2113 653 2278 743
Q 2444 834 2444 1013
Q 2444 1163 2330 1236
Q 2216 1309 1875 1350
L 1678 1375
Q 931 1469 631 1722
Q 331 1975 331 2491
Q 331 3047 712 3315
Q 1094 3584 1881 3584
Q 2191 3584 2531 3537
Q 2872 3491 3272 3391
z
" transform="scale(0.015625)"/>
    </defs>
    <use xlink:href="#DejaVuSans-Bold-50"/>
    <use xlink:href="#DejaVuSans-Bold-79" x="75.166016"/>
    <use xlink:href="#DejaVuSans-Bold-54" x="140.351562"/>
    <use xlink:href="#DejaVuSans-Bold-6f" x="195.314453"/>
    <use xlink:href="#DejaVuSans-Bold-72" x="264.015625"/>
    <use xlink:href="#DejaVuSans-Bold-63" x="313.332031"/>
    <use xlink:href="#DejaVuSans-Bold-68" x="372.609375"/>
    <use xlink:href="#DejaVuSans-Bold-2f" x="443.800781"/>
    <use xlink:href="#DejaVuSans-Bold-4a" x="480.324219"/>
    <use xlink:href="#DejaVuSans-Bold-69" x="517.53125"/>
    <use xlink:href="#DejaVuSans-Bold-74" x="551.808594"/>
    <use xlink:href="#DejaVuSans-Bold-74" x="599.611328"/>
    <use xlink:href="#DejaVuSans-Bold-6f" x="647.414062"/>
    <use xlink:href="#DejaVuSans-Bold-72" x="716.115234"/>
    <use xlink:href="#DejaVuSans-Bold-20" x="765.431641"/>
    <use xlink:href="#DejaVuSans-Bold-41" x="800.246094"/>
    <use xlink:href="#DejaVuSans-Bold-6c" x="877.638672"/>
    <use xlink:href="#DejaVuSans-Bold-69" x="911.916016"/>
    <use xlink:href="#DejaVuSans-Bold-67" x="946.193359"/>
    <use xlink:href="#DejaVuSans-Bold-6e" x="1017.775391"/>
    <use xlink:href="#DejaVuSans-Bold-6d" x="1088.966797"/>
    <use xlink:href="#DejaVuSans-Bold-65" x="1193.166016"/>
    <use xlink:href="#DejaVuSans-Bold-6e" x="1260.988281"/>
    <use xlink:href="#DejaVuSans-Bold-74" x="1332.179688"/>
    <use xlink:href="#DejaVuSans-Bold-20" x="1379.982422"/>
    <use xlink:href="#DejaVuSans-Bold-42" x="1414.796875"/>
    <use xlink:href="#DejaVuSans-Bold-61" x="1491.017578"/>
    <use xlink:href="#DejaVuSans-Bold-73" x="1558.498047"/>
    <use xlink:href="#DejaVuSans-Bold-65" x="1618.019531"/>
    <use xlink:href="#DejaVuSans-Bold-6c" x="1685.841797"/>
    <use xlink:href="#DejaVuSans-Bold-69" x="1720.119141"/>
    <use xlink:href="#DejaVuSans-Bold-6e" x="1754.396484"/>
    <use xlink:href="#DejaVuSans-Bold-65" x="1825.587891"/>
    <use xlink:href="#DejaVuSans-Bold-73" x="1893.410156"/>
   </g>
  </g>
  <g id="text_34">
   <!-- Same data and metrics; trend alignment matters more than exact equality. -->
   <g style="fill: #64748b" transform="translate(11.635767 37.008) scale(0.1 -0.1)">
    <defs>
     <path id="DejaVuSans-53" d="M 3425 4513
L 3425 3897
Q 3066 4069 2747 4153
Q 2428 4238 2131 4238
Q 1616 4238 1336 4038
Q 1056 3838 1056 3469
Q 1056 3159 1242 3001
Q 1428 2844 1947 2747
L 2328 2669
Q 3034 2534 3370 2195
Q 3706 1856 3706 1288
Q 3706 609 3251 259
Q 2797 -91 1919 -91
Q 1588 -91 1214 -16
Q 841 59 441 206
L 441 856
Q 825 641 1194 531
Q 1563 422 1919 422
Q 2459 422 2753 634
Q 3047 847 3047 1241
Q 3047 1584 2836 1778
Q 2625 1972 2144 2069
L 1759 2144
Q 1053 2284 737 2584
Q 422 2884 422 3419
Q 422 4038 858 4394
Q 1294 4750 2059 4750
Q 2388 4750 2728 4690
Q 3069 4631 3425 4513
z
" transform="scale(0.015625)"/>
     <path id="DejaVuSans-61" d="M 2194 1759
Q 1497 1759 1228 1600
Q 959 1441 959 1056
Q 959 750 1161 570
Q 1363 391 1709 391
Q 2188 391 2477 730
Q 2766 1069 2766 1631
L 2766 1759
L 2194 1759
z
M 3341 1997
L 3341 0
L 2766 0
L 2766 531
Q 2569 213 2275 61
Q 1981 -91 1556 -91
Q 1019 -91 701 211
Q 384 513 384 1019
Q 384 1609 779 1909
Q 1175 2209 1959 2209
L 2766 2209
L 2766 2266
Q 2766 2663 2505 2880
Q 2244 3097 1772 3097
Q 1472 3097 1187 3025
Q 903 2953 641 2809
L 641 3341
Q 956 3463 1253 3523
Q 1550 3584 1831 3584
Q 2591 3584 2966 3190
Q 3341 2797 3341 1997
z
" transform="scale(0.015625)"/>
     <path id="DejaVuSans-6d" d="M 3328 2828
Q 3544 3216 3844 3400
Q 4144 3584 4550 3584
Q 5097 3584 5394 3201
Q 5691 2819 5691 2113
L 5691 0
L 5113 0
L 5113 2094
Q 5113 2597 4934 2840
Q 4756 3084 4391 3084
Q 3944 3084 3684 2787
Q 3425 2491 3425 1978
L 3425 0
L 2847 0
L 2847 2094
Q 2847 2600 2669 2842
Q 2491 3084 2119 3084
Q 1678 3084 1418 2786
Q 1159 2488 1159 1978
L 1159 0
L 581 0
L 581 3500
L 1159 3500
L 1159 2956
Q 1356 3278 1631 3431
Q 1906 3584 2284 3584
Q 2666 3584 2933 3390
Q 3200 3197 3328 2828
z
" transform="scale(0.015625)"/>
     <path id="DejaVuSans-20" transform="scale(0.015625)"/>
     <path id="DejaVuSans-64" d="M 2906 2969
L 2906 4863
L 3481 4863
L 3481 0
L 2906 0
L 2906 525
Q 2725 213 2448 61
Q 2172 -91 1784 -91
Q 1150 -91 751 415
Q 353 922 353 1747
Q 353 2572 751 3078
Q 1150 3584 1784 3584
Q 2172 3584 2448 3432
Q 2725 3281 2906 2969
z
M 947 1747
Q 947 1113 1208 752
Q 1469 391 1925 391
Q 2381 391 2643 752
Q 2906 1113 2906 1747
Q 2906 2381 2643 2742
Q 2381 3103 1925 3103
Q 1469 3103 1208 2742
Q 947 2381 947 1747
z
" transform="scale(0.015625)"/>
     <path id="DejaVuSans-6e" d="M 3513 2113
L 3513 0
L 2938 0
L 2938 2094
Q 2938 2591 2744 2837
Q 2550 3084 2163 3084
Q 1697 3084 1428 2787
Q 1159 2491 1159 1978
L 1159 0
L 581 0
L 581 3500
L 1159 3500
L 1159 2956
Q 1366 3272 1645 3428
Q 1925 3584 2291 3584
Q 2894 3584 3203 3211
Q 3513 2838 3513 2113
z
" transform="scale(0.015625)"/>
     <path id="DejaVuSans-73" d="M 2834 3397
L 2834 2853
Q 2591 2978 2328 3040
Q 2066 3103 1784 3103
Q 1356 3103 1142 2972
Q 928 2841 928 2578
Q 928 2378 1081 2264
Q 1234 2150 1697 2047
L 1894 2003
Q 2506 1872 2764 1633
Q 3022 1394 3022 966
Q 3022 478 2636 193
Q 2250 -91 1575 -91
Q 1294 -91 989 -36
Q 684 19 347 128
L 347 722
Q 666 556 975 473
Q 1284 391 1588 391
Q 1994 391 2212 530
Q 2431 669 2431 922
Q 2431 1156 2273 1281
Q 2116 1406 1581 1522
L 1381 1569
Q 847 1681 609 1914
Q 372 2147 372 2553
Q 372 3047 722 3315
Q 1072 3584 1716 3584
Q 2034 3584 2315 3537
Q 2597 3491 2834 3397
z
" transform="scale(0.015625)"/>
     <path id="DejaVuSans-3b" d="M 750 3309
L 1409 3309
L 1409 2516
L 750 2516
L 750 3309
z
M 750 794
L 1409 794
L 1409 256
L 897 -744
L 494 -744
L 750 256
L 750 794
z
" transform="scale(0.015625)"/>
     <path id="DejaVuSans-6c" d="M 603 4863
L 1178 4863
L 1178 0
L 603 0
L 603 4863
z
" transform="scale(0.015625)"/>
     <path id="DejaVuSans-67" d="M 2906 1791
Q 2906 2416 2648 2759
Q 2391 3103 1925 3103
Q 1463 3103 1205 2759
Q 947 2416 947 1791
Q 947 1169 1205 825
Q 1463 481 1925 481
Q 2391 481 2648 825
Q 2906 1169 2906 1791
z
M 3481 434
Q 3481 -459 3084 -895
Q 2688 -1331 1869 -1331
Q 1566 -1331 1297 -1286
Q 1028 -1241 775 -1147
L 775 -588
Q 1028 -725 1275 -790
Q 1522 -856 1778 -856
Q 2344 -856 2625 -561
Q 2906 -266 2906 331
L 2906 616
Q 2728 306 2450 153
Q 2172 0 1784 0
Q 1141 0 747 490
Q 353 981 353 1791
Q 353 2603 747 3093
Q 1141 3584 1784 3584
Q 2172 3584 2450 3431
Q 2728 3278 2906 2969
L 2906 3500
L 3481 3500
L 3481 434
z
" transform="scale(0.015625)"/>
     <path id="DejaVuSans-71" d="M 947 1747
Q 947 1113 1208 752
Q 1469 391 1925 391
Q 2381 391 2643 752
Q 2906 1113 2906 1747
Q 2906 2381 2643 2742
Q 2381 3103 1925 3103
Q 1469 3103 1208 2742
Q 947 2381 947 1747
z
M 2906 525
Q 2725 213 2448 61
Q 2172 -91 1784 -91
Q 1150 -91 751 415
Q 353 922 353 1747
Q 353 2572 751 3078
Q 1150 3584 1784 3584
Q 2172 3584 2448 3432
Q 2725 3281 2906 2969
L 2906 3500
L 3481 3500
L 3481 -1331
L 2906 -1331
L 2906 525
z
" transform="scale(0.015625)"/>
     <path id="DejaVuSans-75" d="M 544 1381
L 544 3500
L 1119 3500
L 1119 1403
Q 1119 906 1312 657
Q 1506 409 1894 409
Q 2359 409 2629 706
Q 2900 1003 2900 1516
L 2900 3500
L 3475 3500
L 3475 0
L 2900 0
L 2900 538
Q 2691 219 2414 64
Q 2138 -91 1772 -91
Q 1169 -91 856 284
Q 544 659 544 1381
z
M 1991 3584
L 1991 3584
z
" transform="scale(0.015625)"/>
    </defs>
    <use xlink:href="#DejaVuSans-53"/>
    <use xlink:href="#DejaVuSans-61" x="63.476562"/>
    <use xlink:href="#DejaVuSans-6d" x="124.755859"/>
    <use xlink:href="#DejaVuSans-65" x="222.167969"/>
    <use xlink:href="#DejaVuSans-20" x="283.691406"/>
    <use xlink:href="#DejaVuSans-64" x="315.478516"/>
    <use xlink:href="#DejaVuSans-61" x="378.955078"/>
    <use xlink:href="#DejaVuSans-74" x="440.234375"/>
    <use xlink:href="#DejaVuSans-61" x="479.443359"/>
    <use xlink:href="#DejaVuSans-20" x="540.722656"/>
    <use xlink:href="#DejaVuSans-61" x="572.509766"/>
    <use xlink:href="#DejaVuSans-6e" x="633.789062"/>
    <use xlink:href="#DejaVuSans-64" x="697.167969"/>
    <use xlink:href="#DejaVuSans-20" x="760.644531"/>
    <use xlink:href="#DejaVuSans-6d" x="792.431641"/>
    <use xlink:href="#DejaVuSans-65" x="889.84375"/>
    <use xlink:href="#DejaVuSans-74" x="951.367188"/>
    <use xlink:href="#DejaVuSans-72" x="990.576172"/>
    <use xlink:href="#DejaVuSans-69" x="1031.689453"/>
    <use xlink:href="#DejaVuSans-63" x="1059.472656"/>
    <use xlink:href="#DejaVuSans-73" x="1114.453125"/>
    <use xlink:href="#DejaVuSans-3b" x="1166.552734"/>
    <use xlink:href="#DejaVuSans-20" x="1200.244141"/>
    <use xlink:href="#DejaVuSans-74" x="1232.03125"/>
    <use xlink:href="#DejaVuSans-72" x="1271.240234"/>
    <use xlink:href="#DejaVuSans-65" x="1310.103516"/>
    <use xlink:href="#DejaVuSans-6e" x="1371.626953"/>
    <use xlink:href="#DejaVuSans-64" x="1435.005859"/>
    <use xlink:href="#DejaVuSans-20" x="1498.482422"/>
    <use xlink:href="#DejaVuSans-61" x="1530.269531"/>
    <use xlink:href="#DejaVuSans-6c" x="1591.548828"/>
    <use xlink:href="#DejaVuSans-69" x="1619.332031"/>
    <use xlink:href="#DejaVuSans-67" x="1647.115234"/>
    <use xlink:href="#DejaVuSans-6e" x="1710.591797"/>
    <use xlink:href="#DejaVuSans-6d" x="1773.970703"/>
    <use xlink:href="#DejaVuSans-65" x="1871.382812"/>
    <use xlink:href="#DejaVuSans-6e" x="1932.90625"/>
    <use xlink:href="#DejaVuSans-74" x="1996.285156"/>
    <use xlink:href="#DejaVuSans-20" x="2035.494141"/>
    <use xlink:href="#DejaVuSans-6d" x="2067.28125"/>
    <use xlink:href="#DejaVuSans-61" x="2164.693359"/>
    <use xlink:href="#DejaVuSans-74" x="2225.972656"/>
    <use xlink:href="#DejaVuSans-74" x="2265.181641"/>
    <use xlink:href="#DejaVuSans-65" x="2304.390625"/>
    <use xlink:href="#DejaVuSans-72" x="2365.914062"/>
    <use xlink:href="#DejaVuSans-73" x="2407.027344"/>
    <use xlink:href="#DejaVuSans-20" x="2459.126953"/>
    <use xlink:href="#DejaVuSans-6d" x="2490.914062"/>
    <use xlink:href="#DejaVuSans-6f" x="2588.326172"/>
    <use xlink:href="#DejaVuSans-72" x="2649.507812"/>
    <use xlink:href="#DejaVuSans-65" x="2688.371094"/>
    <use xlink:href="#DejaVuSans-20" x="2749.894531"/>
    <use xlink:href="#DejaVuSans-74" x="2781.681641"/>
    <use xlink:href="#DejaVuSans-68" x="2820.890625"/>
    <use xlink:href="#DejaVuSans-61" x="2884.269531"/>
    <use xlink:href="#DejaVuSans-6e" x="2945.548828"/>
    <use xlink:href="#DejaVuSans-20" x="3008.927734"/>
    <use xlink:href="#DejaVuSans-65" x="3040.714844"/>
    <use xlink:href="#DejaVuSans-78" x="3100.488281"/>
    <use xlink:href="#DejaVuSans-61" x="3159.667969"/>
    <use xlink:href="#DejaVuSans-63" x="3220.947266"/>
    <use xlink:href="#DejaVuSans-74" x="3275.927734"/>
    <use xlink:href="#DejaVuSans-20" x="3315.136719"/>
    <use xlink:href="#DejaVuSans-65" x="3346.923828"/>
    <use xlink:href="#DejaVuSans-71" x="3408.447266"/>
    <use xlink:href="#DejaVuSans-75" x="3471.923828"/>
    <use xlink:href="#DejaVuSans-61" x="3535.302734"/>
    <use xlink:href="#DejaVuSans-6c" x="3596.582031"/>
    <use xlink:href="#DejaVuSans-69" x="3624.365234"/>
    <use xlink:href="#DejaVuSans-74" x="3652.148438"/>
    <use xlink:href="#DejaVuSans-79" x="3691.357422"/>
    <use xlink:href="#DejaVuSans-2e" x="3736.287109"/>
   </g>
  </g>
 </g>
 <defs>
  <clipPath id="p54a3577fb7">
   <rect x="56.370313" y="110.334545" width="301.659091" height="210.710545"/>
  </clipPath>
  <clipPath id="p0e5a264e07">
   <rect x="428.970313" y="110.334545" width="301.659091" height="210.710545"/>
  </clipPath>
 </defs>
</svg>
