<?xml version="1.0" encoding="utf-8" standalone="no"?>
<!DOCTYPE svg PUBLIC "-//W3C//DTD SVG 1.1//EN"
  "http://www.w3.org/Graphics/SVG/1.1/DTD/svg11.dtd">
<svg xmlns:xlink="http://www.w3.org/1999/xlink" width="698.673295pt" height="417.082983pt" viewBox="0 0 698.673295 417.082983" xmlns="http://www.w3.org/2000/svg" version="1.1">
 <metadata>
  <rdf:RDF xmlns:dc="http://purl.org/dc/elements/1.1/" xmlns:cc="http://creativecommons.org/ns#" xmlns:rdf="http://www.w3.org/1999/02/22-rdf-syntax-ns#">
   <cc:Work>
    <dc:type rdf:resource="http://purl.org/dc/dcmitype/StillImage"/>
    <dc:date>2026-06-24T09:09:38.216187</dc:date>
    <dc:format>image/svg+xml</dc:format>
    <dc:creator>
     <cc:Agent>
      <dc:title>Matplotlib v3.7.2, https://matplotlib.org/</dc:title>
     </cc:Agent>
    </dc:creator>
   </cc:Work>
  </rdf:RDF>
 </metadata>
 <defs>
  <style type="text/css">*{stroke-linejoin: round; stroke-linecap: butt}</style>
 </defs>
 <g id="figure_1">
  <g id="patch_1">
   <path d="M 0 417.082983
L 698.673295 417.082983
L 698.673295 0
L 0 0
z
" style="fill: #ffffff"/>
  </g>
  <g id="axes_1">
   <g id="patch_2">
    <path d="M 149.26875 377.591108
L 691.473295 377.591108
L 691.473295 38.736562
L 149.26875 38.736562
z
" style="fill: #ffffff"/>
   </g>
   <g id="patch_3">
    <path d="M 149.26875 362.188629
L 299.881124 362.188629
L 299.881124 330.593799
L 149.26875 330.593799
z
" clip-path="url(#p55f73881d1)" style="fill: #60a5fa"/>
   </g>
   <g id="patch_4">
    <path d="M 149.26875 322.695092
L 299.881124 322.695092
L 299.881124 291.100262
L 149.26875 291.100262
z
" clip-path="url(#p55f73881d1)" style="fill: #60a5fa"/>
   </g>
   <g id="patch_5">
    <path d="M 149.26875 283.201555
L 375.187311 283.201555
L 375.187311 251.606726
L 149.26875 251.606726
z
" clip-path="url(#p55f73881d1)" style="fill: #60a5fa"/>
   </g>
   <g id="patch_6">
    <path d="M 149.26875 243.708018
L 375.187311 243.708018
L 375.187311 212.113189
L 149.26875 212.113189
z
" clip-path="url(#p55f73881d1)" style="fill: #60a5fa"/>
   </g>
   <g id="patch_7">
    <path d="M 149.26875 204.214482
L 450.493497 204.214482
L 450.493497 172.619652
L 149.26875 172.619652
z
" clip-path="url(#p55f73881d1)" style="fill: #60a5fa"/>
   </g>
   <g id="patch_8">
    <path d="M 149.26875 164.720945
L 450.493497 164.720945
L 450.493497 133.126115
L 149.26875 133.126115
z
" clip-path="url(#p55f73881d1)" style="fill: #60a5fa"/>
   </g>
   <g id="patch_9">
    <path d="M 149.26875 125.227408
L 601.105871 125.227408
L 601.105871 93.632579
L 149.26875 93.632579
z
" clip-path="url(#p55f73881d1)" style="fill: #7c3aed"/>
   </g>
   <g id="patch_10">
    <path d="M 149.26875 85.733871
L 601.105871 85.733871
L 601.105871 54.139042
L 149.26875 54.139042
z
" clip-path="url(#p55f73881d1)" style="fill: #7c3aed"/>
   </g>
   <g id="matplotlib.axis_1">
    <g id="xtick_1">
     <g id="line2d_1">
      <path d="M 149.26875 377.591108
L 149.26875 38.736562
" clip-path="url(#p55f73881d1)" style="fill: none; stroke: #e5e7eb; stroke-width: 0.8; stroke-linecap: square"/>
     </g>
     <g id="line2d_2">
      <defs>
       <path id="m5f197ea8cb" d="M 0 0
L 0 3.5
" style="stroke: #334155; stroke-width: 0.8"/>
      </defs>
      <g>
       <use xlink:href="#m5f197ea8cb" x="149.26875" y="377.591108" style="fill: #334155; stroke: #334155; stroke-width: 0.8"/>
      </g>
     </g>
     <g id="text_1">
      <!-- 0 -->
      <g style="fill: #334155" transform="translate(146.0875 392.189545) scale(0.1 -0.1)">
       <defs>
        <path id="DejaVuSans-30" d="M 2034 4250
Q 1547 4250 1301 3770
Q 1056 3291 1056 2328
Q 1056 1369 1301 889
Q 1547 409 2034 409
Q 2525 409 2770 889
Q 3016 1369 3016 2328
Q 3016 3291 2770 3770
Q 2525 4250 2034 4250
z
M 2034 4750
Q 2819 4750 3233 4129
Q 3647 3509 3647 2328
Q 3647 1150 3233 529
Q 2819 -91 2034 -91
Q 1250 -91 836 529
Q 422 1150 422 2328
Q 422 3509 836 4129
Q 1250 4750 2034 4750
z
" transform="scale(0.015625)"/>
       </defs>
       <use xlink:href="#DejaVuSans-30"/>
      </g>
     </g>
    </g>
    <g id="xtick_2">
     <g id="line2d_3">
      <path d="M 224.574937 377.591108
L 224.574937 38.736562
" clip-path="url(#p55f73881d1)" style="fill: none; stroke: #e5e7eb; stroke-width: 0.8; stroke-linecap: square"/>
     </g>
     <g id="line2d_4">
      <g>
       <use xlink:href="#m5f197ea8cb" x="224.574937" y="377.591108" style="fill: #334155; stroke: #334155; stroke-width: 0.8"/>
      </g>
     </g>
     <g id="text_2">
      <!-- 1 -->
      <g style="fill: #334155" transform="translate(221.393687 392.189545) scale(0.1 -0.1)">
       <defs>
        <path id="DejaVuSans-31" d="M 794 531
L 1825 531
L 1825 4091
L 703 3866
L 703 4441
L 1819 4666
L 2450 4666
L 2450 531
L 3481 531
L 3481 0
L 794 0
L 794 531
z
" transform="scale(0.015625)"/>
       </defs>
       <use xlink:href="#DejaVuSans-31"/>
      </g>
     </g>
    </g>
    <g id="xtick_3">
     <g id="line2d_5">
      <path d="M 299.881124 377.591108
L 299.881124 38.736562
" clip-path="url(#p55f73881d1)" style="fill: none; stroke: #e5e7eb; stroke-width: 0.8; stroke-linecap: square"/>
     </g>
     <g id="line2d_6">
      <g>
       <use xlink:href="#m5f197ea8cb" x="299.881124" y="377.591108" style="fill: #334155; stroke: #334155; stroke-width: 0.8"/>
      </g>
     </g>
     <g id="text_3">
      <!-- 2 -->
      <g style="fill: #334155" transform="translate(296.699874 392.189545) scale(0.1 -0.1)">
       <defs>
        <path id="DejaVuSans-32" d="M 1228 531
L 3431 531
L 3431 0
L 469 0
L 469 531
Q 828 903 1448 1529
Q 2069 2156 2228 2338
Q 2531 2678 2651 2914
Q 2772 3150 2772 3378
Q 2772 3750 2511 3984
Q 2250 4219 1831 4219
Q 1534 4219 1204 4116
Q 875 4013 500 3803
L 500 4441
Q 881 4594 1212 4672
Q 1544 4750 1819 4750
Q 2544 4750 2975 4387
Q 3406 4025 3406 3419
Q 3406 3131 3298 2873
Q 3191 2616 2906 2266
Q 2828 2175 2409 1742
Q 1991 1309 1228 531
z
" transform="scale(0.015625)"/>
       </defs>
       <use xlink:href="#DejaVuSans-32"/>
      </g>
     </g>
    </g>
    <g id="xtick_4">
     <g id="line2d_7">
      <path d="M 375.187311 377.591108
L 375.187311 38.736562
" clip-path="url(#p55f73881d1)" style="fill: none; stroke: #e5e7eb; stroke-width: 0.8; stroke-linecap: square"/>
     </g>
     <g id="line2d_8">
      <g>
       <use xlink:href="#m5f197ea8cb" x="375.187311" y="377.591108" style="fill: #334155; stroke: #334155; stroke-width: 0.8"/>
      </g>
     </g>
     <g id="text_4">
      <!-- 3 -->
      <g style="fill: #334155" transform="translate(372.006061 392.189545) scale(0.1 -0.1)">
       <defs>
        <path id="DejaVuSans-33" d="M 2597 2516
Q 3050 2419 3304 2112
Q 3559 1806 3559 1356
Q 3559 666 3084 287
Q 2609 -91 1734 -91
Q 1441 -91 1130 -33
Q 819 25 488 141
L 488 750
Q 750 597 1062 519
Q 1375 441 1716 441
Q 2309 441 2620 675
Q 2931 909 2931 1356
Q 2931 1769 2642 2001
Q 2353 2234 1838 2234
L 1294 2234
L 1294 2753
L 1863 2753
Q 2328 2753 2575 2939
Q 2822 3125 2822 3475
Q 2822 3834 2567 4026
Q 2313 4219 1838 4219
Q 1578 4219 1281 4162
Q 984 4106 628 3988
L 628 4550
Q 988 4650 1302 4700
Q 1616 4750 1894 4750
Q 2613 4750 3031 4423
Q 3450 4097 3450 3541
Q 3450 3153 3228 2886
Q 3006 2619 2597 2516
z
" transform="scale(0.015625)"/>
       </defs>
       <use xlink:href="#DejaVuSans-33"/>
      </g>
     </g>
    </g>
    <g id="xtick_5">
     <g id="line2d_9">
      <path d="M 450.493497 377.591108
L 450.493497 38.736562
" clip-path="url(#p55f73881d1)" style="fill: none; stroke: #e5e7eb; stroke-width: 0.8; stroke-linecap: square"/>
     </g>
     <g id="line2d_10">
      <g>
       <use xlink:href="#m5f197ea8cb" x="450.493497" y="377.591108" style="fill: #334155; stroke: #334155; stroke-width: 0.8"/>
      </g>
     </g>
     <g id="text_5">
      <!-- 4 -->
      <g style="fill: #334155" transform="translate(447.312247 392.189545) scale(0.1 -0.1)">
       <defs>
        <path id="DejaVuSans-34" d="M 2419 4116
L 825 1625
L 2419 1625
L 2419 4116
z
M 2253 4666
L 3047 4666
L 3047 1625
L 3713 1625
L 3713 1100
L 3047 1100
L 3047 0
L 2419 0
L 2419 1100
L 313 1100
L 313 1709
L 2253 4666
z
" transform="scale(0.015625)"/>
       </defs>
       <use xlink:href="#DejaVuSans-34"/>
      </g>
     </g>
    </g>
    <g id="xtick_6">
     <g id="line2d_11">
      <path d="M 525.799684 377.591108
L 525.799684 38.736562
" clip-path="url(#p55f73881d1)" style="fill: none; stroke: #e5e7eb; stroke-width: 0.8; stroke-linecap: square"/>
     </g>
     <g id="line2d_12">
      <g>
       <use xlink:href="#m5f197ea8cb" x="525.799684" y="377.591108" style="fill: #334155; stroke: #334155; stroke-width: 0.8"/>
      </g>
     </g>
     <g id="text_6">
      <!-- 5 -->
      <g style="fill: #334155" transform="translate(522.618434 392.189545) scale(0.1 -0.1)">
       <defs>
        <path id="DejaVuSans-35" d="M 691 4666
L 3169 4666
L 3169 4134
L 1269 4134
L 1269 2991
Q 1406 3038 1543 3061
Q 1681 3084 1819 3084
Q 2600 3084 3056 2656
Q 3513 2228 3513 1497
Q 3513 744 3044 326
Q 2575 -91 1722 -91
Q 1428 -91 1123 -41
Q 819 9 494 109
L 494 744
Q 775 591 1075 516
Q 1375 441 1709 441
Q 2250 441 2565 725
Q 2881 1009 2881 1497
Q 2881 1984 2565 2268
Q 2250 2553 1709 2553
Q 1456 2553 1204 2497
Q 953 2441 691 2322
L 691 4666
z
" transform="scale(0.015625)"/>
       </defs>
       <use xlink:href="#DejaVuSans-35"/>
      </g>
     </g>
    </g>
    <g id="xtick_7">
     <g id="line2d_13">
      <path d="M 601.105871 377.591108
L 601.105871 38.736562
" clip-path="url(#p55f73881d1)" style="fill: none; stroke: #e5e7eb; stroke-width: 0.8; stroke-linecap: square"/>
     </g>
     <g id="line2d_14">
      <g>
       <use xlink:href="#m5f197ea8cb" x="601.105871" y="377.591108" style="fill: #334155; stroke: #334155; stroke-width: 0.8"/>
      </g>
     </g>
     <g id="text_7">
      <!-- 6 -->
      <g style="fill: #334155" transform="translate(597.924621 392.189545) scale(0.1 -0.1)">
       <defs>
        <path id="DejaVuSans-36" d="M 2113 2584
Q 1688 2584 1439 2293
Q 1191 2003 1191 1497
Q 1191 994 1439 701
Q 1688 409 2113 409
Q 2538 409 2786 701
Q 3034 994 3034 1497
Q 3034 2003 2786 2293
Q 2538 2584 2113 2584
z
M 3366 4563
L 3366 3988
Q 3128 4100 2886 4159
Q 2644 4219 2406 4219
Q 1781 4219 1451 3797
Q 1122 3375 1075 2522
Q 1259 2794 1537 2939
Q 1816 3084 2150 3084
Q 2853 3084 3261 2657
Q 3669 2231 3669 1497
Q 3669 778 3244 343
Q 2819 -91 2113 -91
Q 1303 -91 875 529
Q 447 1150 447 2328
Q 447 3434 972 4092
Q 1497 4750 2381 4750
Q 2619 4750 2861 4703
Q 3103 4656 3366 4563
z
" transform="scale(0.015625)"/>
       </defs>
       <use xlink:href="#DejaVuSans-36"/>
      </g>
     </g>
    </g>
    <g id="xtick_8">
     <g id="line2d_15">
      <path d="M 676.412058 377.591108
L 676.412058 38.736562
" clip-path="url(#p55f73881d1)" style="fill: none; stroke: #e5e7eb; stroke-width: 0.8; stroke-linecap: square"/>
     </g>
     <g id="line2d_16">
      <g>
       <use xlink:href="#m5f197ea8cb" x="676.412058" y="377.591108" style="fill: #334155; stroke: #334155; stroke-width: 0.8"/>
      </g>
     </g>
     <g id="text_8">
      <!-- 7 -->
      <g style="fill: #334155" transform="translate(673.230808 392.189545) scale(0.1 -0.1)">
       <defs>
        <path id="DejaVuSans-37" d="M 525 4666
L 3525 4666
L 3525 4397
L 1831 0
L 1172 0
L 2766 4134
L 525 4134
L 525 4666
z
" transform="scale(0.015625)"/>
       </defs>
       <use xlink:href="#DejaVuSans-37"/>
      </g>
     </g>
    </g>
    <g id="text_9">
     <!-- Diagnostic cases -->
     <g style="fill: #334155" transform="translate(369.854773 407.387358) scale(0.12 -0.12)">
      <defs>
       <path id="DejaVuSans-44" d="M 1259 4147
L 1259 519
L 2022 519
Q 2988 519 3436 956
Q 3884 1394 3884 2338
Q 3884 3275 3436 3711
Q 2988 4147 2022 4147
L 1259 4147
z
M 628 4666
L 1925 4666
Q 3281 4666 3915 4102
Q 4550 3538 4550 2338
Q 4550 1131 3912 565
Q 3275 0 1925 0
L 628 0
L 628 4666
z
" transform="scale(0.015625)"/>
       <path id="DejaVuSans-69" d="M 603 3500
L 1178 3500
L 1178 0
L 603 0
L 603 3500
z
M 603 4863
L 1178 4863
L 1178 4134
L 603 4134
L 603 4863
z
" transform="scale(0.015625)"/>
       <path id="DejaVuSans-61" d="M 2194 1759
Q 1497 1759 1228 1600
Q 959 1441 959 1056
Q 959 750 1161 570
Q 1363 391 1709 391
Q 2188 391 2477 730
Q 2766 1069 2766 1631
L 2766 1759
L 2194 1759
z
M 3341 1997
L 3341 0
L 2766 0
L 2766 531
Q 2569 213 2275 61
Q 1981 -91 1556 -91
Q 1019 -91 701 211
Q 384 513 384 1019
Q 384 1609 779 1909
Q 1175 2209 1959 2209
L 2766 2209
L 2766 2266
Q 2766 2663 2505 2880
Q 2244 3097 1772 3097
Q 1472 3097 1187 3025
Q 903 2953 641 2809
L 641 3341
Q 956 3463 1253 3523
Q 1550 3584 1831 3584
Q 2591 3584 2966 3190
Q 3341 2797 3341 1997
z
" transform="scale(0.015625)"/>
       <path id="DejaVuSans-67" d="M 2906 1791
Q 2906 2416 2648 2759
Q 2391 3103 1925 3103
Q 1463 3103 1205 2759
Q 947 2416 947 1791
Q 947 1169 1205 825
Q 1463 481 1925 481
Q 2391 481 2648 825
Q 2906 1169 2906 1791
z
M 3481 434
Q 3481 -459 3084 -895
Q 2688 -1331 1869 -1331
Q 1566 -1331 1297 -1286
Q 1028 -1241 775 -1147
L 775 -588
Q 1028 -725 1275 -790
Q 1522 -856 1778 -856
Q 2344 -856 2625 -561
Q 2906 -266 2906 331
L 2906 616
Q 2728 306 2450 153
Q 2172 0 1784 0
Q 1141 0 747 490
Q 353 981 353 1791
Q 353 2603 747 3093
Q 1141 3584 1784 3584
Q 2172 3584 2450 3431
Q 2728 3278 2906 2969
L 2906 3500
L 3481 3500
L 3481 434
z
" transform="scale(0.015625)"/>
       <path id="DejaVuSans-6e" d="M 3513 2113
L 3513 0
L 2938 0
L 2938 2094
Q 2938 2591 2744 2837
Q 2550 3084 2163 3084
Q 1697 3084 1428 2787
Q 1159 2491 1159 1978
L 1159 0
L 581 0
L 581 3500
L 1159 3500
L 1159 2956
Q 1366 3272 1645 3428
Q 1925 3584 2291 3584
Q 2894 3584 3203 3211
Q 3513 2838 3513 2113
z
" transform="scale(0.015625)"/>
       <path id="DejaVuSans-6f" d="M 1959 3097
Q 1497 3097 1228 2736
Q 959 2375 959 1747
Q 959 1119 1226 758
Q 1494 397 1959 397
Q 2419 397 2687 759
Q 2956 1122 2956 1747
Q 2956 2369 2687 2733
Q 2419 3097 1959 3097
z
M 1959 3584
Q 2709 3584 3137 3096
Q 3566 2609 3566 1747
Q 3566 888 3137 398
Q 2709 -91 1959 -91
Q 1206 -91 779 398
Q 353 888 353 1747
Q 353 2609 779 3096
Q 1206 3584 1959 3584
z
" transform="scale(0.015625)"/>
       <path id="DejaVuSans-73" d="M 2834 3397
L 2834 2853
Q 2591 2978 2328 3040
Q 2066 3103 1784 3103
Q 1356 3103 1142 2972
Q 928 2841 928 2578
Q 928 2378 1081 2264
Q 1234 2150 1697 2047
L 1894 2003
Q 2506 1872 2764 1633
Q 3022 1394 3022 966
Q 3022 478 2636 193
Q 2250 -91 1575 -91
Q 1294 -91 989 -36
Q 684 19 347 128
L 347 722
Q 666 556 975 473
Q 1284 391 1588 391
Q 1994 391 2212 530
Q 2431 669 2431 922
Q 2431 1156 2273 1281
Q 2116 1406 1581 1522
L 1381 1569
Q 847 1681 609 1914
Q 372 2147 372 2553
Q 372 3047 722 3315
Q 1072 3584 1716 3584
Q 2034 3584 2315 3537
Q 2597 3491 2834 3397
z
" transform="scale(0.015625)"/>
       <path id="DejaVuSans-74" d="M 1172 4494
L 1172 3500
L 2356 3500
L 2356 3053
L 1172 3053
L 1172 1153
Q 1172 725 1289 603
Q 1406 481 1766 481
L 2356 481
L 2356 0
L 1766 0
Q 1100 0 847 248
Q 594 497 594 1153
L 594 3053
L 172 3053
L 172 3500
L 594 3500
L 594 4494
L 1172 4494
z
" transform="scale(0.015625)"/>
       <path id="DejaVuSans-63" d="M 3122 3366
L 3122 2828
Q 2878 2963 2633 3030
Q 2388 3097 2138 3097
Q 1578 3097 1268 2742
Q 959 2388 959 1747
Q 959 1106 1268 751
Q 1578 397 2138 397
Q 2388 397 2633 464
Q 2878 531 3122 666
L 3122 134
Q 2881 22 2623 -34
Q 2366 -91 2075 -91
Q 1284 -91 818 406
Q 353 903 353 1747
Q 353 2603 823 3093
Q 1294 3584 2113 3584
Q 2378 3584 2631 3529
Q 2884 3475 3122 3366
z
" transform="scale(0.015625)"/>
       <path id="DejaVuSans-20" transform="scale(0.015625)"/>
       <path id="DejaVuSans-65" d="M 3597 1894
L 3597 1613
L 953 1613
Q 991 1019 1311 708
Q 1631 397 2203 397
Q 2534 397 2845 478
Q 3156 559 3463 722
L 3463 178
Q 3153 47 2828 -22
Q 2503 -91 2169 -91
Q 1331 -91 842 396
Q 353 884 353 1716
Q 353 2575 817 3079
Q 1281 3584 2069 3584
Q 2775 3584 3186 3129
Q 3597 2675 3597 1894
z
M 3022 2063
Q 3016 2534 2758 2815
Q 2500 3097 2075 3097
Q 1594 3097 1305 2825
Q 1016 2553 972 2059
L 3022 2063
z
" transform="scale(0.015625)"/>
      </defs>
      <use xlink:href="#DejaVuSans-44"/>
      <use xlink:href="#DejaVuSans-69" x="77.001953"/>
      <use xlink:href="#DejaVuSans-61" x="104.785156"/>
      <use xlink:href="#DejaVuSans-67" x="166.064453"/>
      <use xlink:href="#DejaVuSans-6e" x="229.541016"/>
      <use xlink:href="#DejaVuSans-6f" x="292.919922"/>
      <use xlink:href="#DejaVuSans-73" x="354.101562"/>
      <use xlink:href="#DejaVuSans-74" x="406.201172"/>
      <use xlink:href="#DejaVuSans-69" x="445.410156"/>
      <use xlink:href="#DejaVuSans-63" x="473.193359"/>
      <use xlink:href="#DejaVuSans-20" x="528.173828"/>
      <use xlink:href="#DejaVuSans-63" x="559.960938"/>
      <use xlink:href="#DejaVuSans-61" x="614.941406"/>
      <use xlink:href="#DejaVuSans-73" x="676.220703"/>
      <use xlink:href="#DejaVuSans-65" x="728.320312"/>
      <use xlink:href="#DejaVuSans-73" x="789.84375"/>
     </g>
    </g>
   </g>
   <g id="matplotlib.axis_2">
    <g id="ytick_1">
     <g id="line2d_17">
      <defs>
       <path id="md40ca640c9" d="M 0 0
L -3.5 0
" style="stroke: #334155; stroke-width: 0.8"/>
      </defs>
      <g>
       <use xlink:href="#md40ca640c9" x="149.26875" y="346.391214" style="fill: #334155; stroke: #334155; stroke-width: 0.8"/>
      </g>
     </g>
     <g id="text_10">
      <!-- background only -->
      <g style="fill: #334155" transform="translate(58.795312 350.190433) scale(0.1 -0.1)">
       <defs>
        <path id="DejaVuSans-62" d="M 3116 1747
Q 3116 2381 2855 2742
Q 2594 3103 2138 3103
Q 1681 3103 1420 2742
Q 1159 2381 1159 1747
Q 1159 1113 1420 752
Q 1681 391 2138 391
Q 2594 391 2855 752
Q 3116 1113 3116 1747
z
M 1159 2969
Q 1341 3281 1617 3432
Q 1894 3584 2278 3584
Q 2916 3584 3314 3078
Q 3713 2572 3713 1747
Q 3713 922 3314 415
Q 2916 -91 2278 -91
Q 1894 -91 1617 61
Q 1341 213 1159 525
L 1159 0
L 581 0
L 581 4863
L 1159 4863
L 1159 2969
z
" transform="scale(0.015625)"/>
        <path id="DejaVuSans-6b" d="M 581 4863
L 1159 4863
L 1159 1991
L 2875 3500
L 3609 3500
L 1753 1863
L 3688 0
L 2938 0
L 1159 1709
L 1159 0
L 581 0
L 581 4863
z
" transform="scale(0.015625)"/>
        <path id="DejaVuSans-72" d="M 2631 2963
Q 2534 3019 2420 3045
Q 2306 3072 2169 3072
Q 1681 3072 1420 2755
Q 1159 2438 1159 1844
L 1159 0
L 581 0
L 581 3500
L 1159 3500
L 1159 2956
Q 1341 3275 1631 3429
Q 1922 3584 2338 3584
Q 2397 3584 2469 3576
Q 2541 3569 2628 3553
L 2631 2963
z
" transform="scale(0.015625)"/>
        <path id="DejaVuSans-75" d="M 544 1381
L 544 3500
L 1119 3500
L 1119 1403
Q 1119 906 1312 657
Q 1506 409 1894 409
Q 2359 409 2629 706
Q 2900 1003 2900 1516
L 2900 3500
L 3475 3500
L 3475 0
L 2900 0
L 2900 538
Q 2691 219 2414 64
Q 2138 -91 1772 -91
Q 1169 -91 856 284
Q 544 659 544 1381
z
M 1991 3584
L 1991 3584
z
" transform="scale(0.015625)"/>
        <path id="DejaVuSans-64" d="M 2906 2969
L 2906 4863
L 3481 4863
L 3481 0
L 2906 0
L 2906 525
Q 2725 213 2448 61
Q 2172 -91 1784 -91
Q 1150 -91 751 415
Q 353 922 353 1747
Q 353 2572 751 3078
Q 1150 3584 1784 3584
Q 2172 3584 2448 3432
Q 2725 3281 2906 2969
z
M 947 1747
Q 947 1113 1208 752
Q 1469 391 1925 391
Q 2381 391 2643 752
Q 2906 1113 2906 1747
Q 2906 2381 2643 2742
Q 2381 3103 1925 3103
Q 1469 3103 1208 2742
Q 947 2381 947 1747
z
" transform="scale(0.015625)"/>
        <path id="DejaVuSans-6c" d="M 603 4863
L 1178 4863
L 1178 0
L 603 0
L 603 4863
z
" transform="scale(0.015625)"/>
        <path id="DejaVuSans-79" d="M 2059 -325
Q 1816 -950 1584 -1140
Q 1353 -1331 966 -1331
L 506 -1331
L 506 -850
L 844 -850
Q 1081 -850 1212 -737
Q 1344 -625 1503 -206
L 1606 56
L 191 3500
L 800 3500
L 1894 763
L 2988 3500
L 3597 3500
L 2059 -325
z
" transform="scale(0.015625)"/>
       </defs>
       <use xlink:href="#DejaVuSans-62"/>
       <use xlink:href="#DejaVuSans-61" x="63.476562"/>
       <use xlink:href="#DejaVuSans-63" x="124.755859"/>
       <use xlink:href="#DejaVuSans-6b" x="179.736328"/>
       <use xlink:href="#DejaVuSans-67" x="237.646484"/>
       <use xlink:href="#DejaVuSans-72" x="301.123047"/>
       <use xlink:href="#DejaVuSans-6f" x="339.986328"/>
       <use xlink:href="#DejaVuSans-75" x="401.167969"/>
       <use xlink:href="#DejaVuSans-6e" x="464.546875"/>
       <use xlink:href="#DejaVuSans-64" x="527.925781"/>
       <use xlink:href="#DejaVuSans-20" x="591.402344"/>
       <use xlink:href="#DejaVuSans-6f" x="623.189453"/>
       <use xlink:href="#DejaVuSans-6e" x="684.371094"/>
       <use xlink:href="#DejaVuSans-6c" x="747.75"/>
       <use xlink:href="#DejaVuSans-79" x="775.533203"/>
      </g>
     </g>
    </g>
    <g id="ytick_2">
     <g id="line2d_18">
      <g>
       <use xlink:href="#md40ca640c9" x="149.26875" y="306.897677" style="fill: #334155; stroke: #334155; stroke-width: 0.8"/>
      </g>
     </g>
     <g id="text_11">
      <!-- multi evidence confusion -->
      <g style="fill: #334155" transform="translate(16.760937 310.696896) scale(0.1 -0.1)">
       <defs>
        <path id="DejaVuSans-6d" d="M 3328 2828
Q 3544 3216 3844 3400
Q 4144 3584 4550 3584
Q 5097 3584 5394 3201
Q 5691 2819 5691 2113
L 5691 0
L 5113 0
L 5113 2094
Q 5113 2597 4934 2840
Q 4756 3084 4391 3084
Q 3944 3084 3684 2787
Q 3425 2491 3425 1978
L 3425 0
L 2847 0
L 2847 2094
Q 2847 2600 2669 2842
Q 2491 3084 2119 3084
Q 1678 3084 1418 2786
Q 1159 2488 1159 1978
L 1159 0
L 581 0
L 581 3500
L 1159 3500
L 1159 2956
Q 1356 3278 1631 3431
Q 1906 3584 2284 3584
Q 2666 3584 2933 3390
Q 3200 3197 3328 2828
z
" transform="scale(0.015625)"/>
        <path id="DejaVuSans-76" d="M 191 3500
L 800 3500
L 1894 563
L 2988 3500
L 3597 3500
L 2284 0
L 1503 0
L 191 3500
z
" transform="scale(0.015625)"/>
        <path id="DejaVuSans-66" d="M 2375 4863
L 2375 4384
L 1825 4384
Q 1516 4384 1395 4259
Q 1275 4134 1275 3809
L 1275 3500
L 2222 3500
L 2222 3053
L 1275 3053
L 1275 0
L 697 0
L 697 3053
L 147 3053
L 147 3500
L 697 3500
L 697 3744
Q 697 4328 969 4595
Q 1241 4863 1831 4863
L 2375 4863
z
" transform="scale(0.015625)"/>
       </defs>
       <use xlink:href="#DejaVuSans-6d"/>
       <use xlink:href="#DejaVuSans-75" x="97.412109"/>
       <use xlink:href="#DejaVuSans-6c" x="160.791016"/>
       <use xlink:href="#DejaVuSans-74" x="188.574219"/>
       <use xlink:href="#DejaVuSans-69" x="227.783203"/>
       <use xlink:href="#DejaVuSans-20" x="255.566406"/>
       <use xlink:href="#DejaVuSans-65" x="287.353516"/>
       <use xlink:href="#DejaVuSans-76" x="348.876953"/>
       <use xlink:href="#DejaVuSans-69" x="408.056641"/>
       <use xlink:href="#DejaVuSans-64" x="435.839844"/>
       <use xlink:href="#DejaVuSans-65" x="499.316406"/>
       <use xlink:href="#DejaVuSans-6e" x="560.839844"/>
       <use xlink:href="#DejaVuSans-63" x="624.21875"/>
       <use xlink:href="#DejaVuSans-65" x="679.199219"/>
       <use xlink:href="#DejaVuSans-20" x="740.722656"/>
       <use xlink:href="#DejaVuSans-63" x="772.509766"/>
       <use xlink:href="#DejaVuSans-6f" x="827.490234"/>
       <use xlink:href="#DejaVuSans-6e" x="888.671875"/>
       <use xlink:href="#DejaVuSans-66" x="952.050781"/>
       <use xlink:href="#DejaVuSans-75" x="987.255859"/>
       <use xlink:href="#DejaVuSans-73" x="1050.634766"/>
       <use xlink:href="#DejaVuSans-69" x="1102.734375"/>
       <use xlink:href="#DejaVuSans-6f" x="1130.517578"/>
       <use xlink:href="#DejaVuSans-6e" x="1191.699219"/>
      </g>
     </g>
    </g>
    <g id="ytick_3">
     <g id="line2d_19">
      <g>
       <use xlink:href="#md40ca640c9" x="149.26875" y="267.40414" style="fill: #334155; stroke: #334155; stroke-width: 0.8"/>
      </g>
     </g>
     <g id="text_12">
      <!-- ambiguous query -->
      <g style="fill: #334155" transform="translate(54.875 271.203359) scale(0.1 -0.1)">
       <defs>
        <path id="DejaVuSans-71" d="M 947 1747
Q 947 1113 1208 752
Q 1469 391 1925 391
Q 2381 391 2643 752
Q 2906 1113 2906 1747
Q 2906 2381 2643 2742
Q 2381 3103 1925 3103
Q 1469 3103 1208 2742
Q 947 2381 947 1747
z
M 2906 525
Q 2725 213 2448 61
Q 2172 -91 1784 -91
Q 1150 -91 751 415
Q 353 922 353 1747
Q 353 2572 751 3078
Q 1150 3584 1784 3584
Q 2172 3584 2448 3432
Q 2725 3281 2906 2969
L 2906 3500
L 3481 3500
L 3481 -1331
L 2906 -1331
L 2906 525
z
" transform="scale(0.015625)"/>
       </defs>
       <use xlink:href="#DejaVuSans-61"/>
       <use xlink:href="#DejaVuSans-6d" x="61.279297"/>
       <use xlink:href="#DejaVuSans-62" x="158.691406"/>
       <use xlink:href="#DejaVuSans-69" x="222.167969"/>
       <use xlink:href="#DejaVuSans-67" x="249.951172"/>
       <use xlink:href="#DejaVuSans-75" x="313.427734"/>
       <use xlink:href="#DejaVuSans-6f" x="376.806641"/>
       <use xlink:href="#DejaVuSans-75" x="437.988281"/>
       <use xlink:href="#DejaVuSans-73" x="501.367188"/>
       <use xlink:href="#DejaVuSans-20" x="553.466797"/>
       <use xlink:href="#DejaVuSans-71" x="585.253906"/>
       <use xlink:href="#DejaVuSans-75" x="648.730469"/>
       <use xlink:href="#DejaVuSans-65" x="712.109375"/>
       <use xlink:href="#DejaVuSans-72" x="773.632812"/>
       <use xlink:href="#DejaVuSans-79" x="814.746094"/>
      </g>
     </g>
    </g>
    <g id="ytick_4">
     <g id="line2d_20">
      <g>
       <use xlink:href="#md40ca640c9" x="149.26875" y="227.910604" style="fill: #334155; stroke: #334155; stroke-width: 0.8"/>
      </g>
     </g>
     <g id="text_13">
      <!-- candidate or label issue -->
      <g style="fill: #334155" transform="translate(22.990625 231.709822) scale(0.1 -0.1)">
       <use xlink:href="#DejaVuSans-63"/>
       <use xlink:href="#DejaVuSans-61" x="54.980469"/>
       <use xlink:href="#DejaVuSans-6e" x="116.259766"/>
       <use xlink:href="#DejaVuSans-64" x="179.638672"/>
       <use xlink:href="#DejaVuSans-69" x="243.115234"/>
       <use xlink:href="#DejaVuSans-64" x="270.898438"/>
       <use xlink:href="#DejaVuSans-61" x="334.375"/>
       <use xlink:href="#DejaVuSans-74" x="395.654297"/>
       <use xlink:href="#DejaVuSans-65" x="434.863281"/>
       <use xlink:href="#DejaVuSans-20" x="496.386719"/>
       <use xlink:href="#DejaVuSans-6f" x="528.173828"/>
       <use xlink:href="#DejaVuSans-72" x="589.355469"/>
       <use xlink:href="#DejaVuSans-20" x="630.46875"/>
       <use xlink:href="#DejaVuSans-6c" x="662.255859"/>
       <use xlink:href="#DejaVuSans-61" x="690.039062"/>
       <use xlink:href="#DejaVuSans-62" x="751.318359"/>
       <use xlink:href="#DejaVuSans-65" x="814.794922"/>
       <use xlink:href="#DejaVuSans-6c" x="876.318359"/>
       <use xlink:href="#DejaVuSans-20" x="904.101562"/>
       <use xlink:href="#DejaVuSans-69" x="935.888672"/>
       <use xlink:href="#DejaVuSans-73" x="963.671875"/>
       <use xlink:href="#DejaVuSans-73" x="1015.771484"/>
       <use xlink:href="#DejaVuSans-75" x="1067.871094"/>
       <use xlink:href="#DejaVuSans-65" x="1131.25"/>
      </g>
     </g>
    </g>
    <g id="ytick_5">
     <g id="line2d_21">
      <g>
       <use xlink:href="#md40ca640c9" x="149.26875" y="188.417067" style="fill: #334155; stroke: #334155; stroke-width: 0.8"/>
      </g>
     </g>
     <g id="text_14">
      <!-- lexical trap -->
      <g style="fill: #334155" transform="translate(86.725 192.216286) scale(0.1 -0.1)">
       <defs>
        <path id="DejaVuSans-78" d="M 3513 3500
L 2247 1797
L 3578 0
L 2900 0
L 1881 1375
L 863 0
L 184 0
L 1544 1831
L 300 3500
L 978 3500
L 1906 2253
L 2834 3500
L 3513 3500
z
" transform="scale(0.015625)"/>
        <path id="DejaVuSans-70" d="M 1159 525
L 1159 -1331
L 581 -1331
L 581 3500
L 1159 3500
L 1159 2969
Q 1341 3281 1617 3432
Q 1894 3584 2278 3584
Q 2916 3584 3314 3078
Q 3713 2572 3713 1747
Q 3713 922 3314 415
Q 2916 -91 2278 -91
Q 1894 -91 1617 61
Q 1341 213 1159 525
z
M 3116 1747
Q 3116 2381 2855 2742
Q 2594 3103 2138 3103
Q 1681 3103 1420 2742
Q 1159 2381 1159 1747
Q 1159 1113 1420 752
Q 1681 391 2138 391
Q 2594 391 2855 752
Q 3116 1113 3116 1747
z
" transform="scale(0.015625)"/>
       </defs>
       <use xlink:href="#DejaVuSans-6c"/>
       <use xlink:href="#DejaVuSans-65" x="27.783203"/>
       <use xlink:href="#DejaVuSans-78" x="87.556641"/>
       <use xlink:href="#DejaVuSans-69" x="146.736328"/>
       <use xlink:href="#DejaVuSans-63" x="174.519531"/>
       <use xlink:href="#DejaVuSans-61" x="229.5"/>
       <use xlink:href="#DejaVuSans-6c" x="290.779297"/>
       <use xlink:href="#DejaVuSans-20" x="318.5625"/>
       <use xlink:href="#DejaVuSans-74" x="350.349609"/>
       <use xlink:href="#DejaVuSans-72" x="389.558594"/>
       <use xlink:href="#DejaVuSans-61" x="430.671875"/>
       <use xlink:href="#DejaVuSans-70" x="491.951172"/>
      </g>
     </g>
    </g>
    <g id="ytick_6">
     <g id="line2d_22">
      <g>
       <use xlink:href="#md40ca640c9" x="149.26875" y="148.92353" style="fill: #334155; stroke: #334155; stroke-width: 0.8"/>
      </g>
     </g>
     <g id="text_15">
      <!-- llm overjudgment -->
      <g style="fill: #334155" transform="translate(53.528125 152.722749) scale(0.1 -0.1)">
       <defs>
        <path id="DejaVuSans-6a" d="M 603 3500
L 1178 3500
L 1178 -63
Q 1178 -731 923 -1031
Q 669 -1331 103 -1331
L -116 -1331
L -116 -844
L 38 -844
Q 366 -844 484 -692
Q 603 -541 603 -63
L 603 3500
z
M 603 4863
L 1178 4863
L 1178 4134
L 603 4134
L 603 4863
z
" transform="scale(0.015625)"/>
       </defs>
       <use xlink:href="#DejaVuSans-6c"/>
       <use xlink:href="#DejaVuSans-6c" x="27.783203"/>
       <use xlink:href="#DejaVuSans-6d" x="55.566406"/>
       <use xlink:href="#DejaVuSans-20" x="152.978516"/>
       <use xlink:href="#DejaVuSans-6f" x="184.765625"/>
       <use xlink:href="#DejaVuSans-76" x="245.947266"/>
       <use xlink:href="#DejaVuSans-65" x="305.126953"/>
       <use xlink:href="#DejaVuSans-72" x="366.650391"/>
       <use xlink:href="#DejaVuSans-6a" x="407.763672"/>
       <use xlink:href="#DejaVuSans-75" x="435.546875"/>
       <use xlink:href="#DejaVuSans-64" x="498.925781"/>
       <use xlink:href="#DejaVuSans-67" x="562.402344"/>
       <use xlink:href="#DejaVuSans-6d" x="625.878906"/>
       <use xlink:href="#DejaVuSans-65" x="723.291016"/>
       <use xlink:href="#DejaVuSans-6e" x="784.814453"/>
       <use xlink:href="#DejaVuSans-74" x="848.193359"/>
      </g>
     </g>
    </g>
    <g id="ytick_7">
     <g id="line2d_23">
      <g>
       <use xlink:href="#md40ca640c9" x="149.26875" y="109.429993" style="fill: #334155; stroke: #334155; stroke-width: 0.8"/>
      </g>
     </g>
     <g id="text_16">
      <!-- evidence utilization failure -->
      <g style="fill: #334155" transform="translate(9.867187 113.229212) scale(0.1 -0.1)">
       <defs>
        <path id="DejaVuSans-7a" d="M 353 3500
L 3084 3500
L 3084 2975
L 922 459
L 3084 459
L 3084 0
L 275 0
L 275 525
L 2438 3041
L 353 3041
L 353 3500
z
" transform="scale(0.015625)"/>
       </defs>
       <use xlink:href="#DejaVuSans-65"/>
       <use xlink:href="#DejaVuSans-76" x="61.523438"/>
       <use xlink:href="#DejaVuSans-69" x="120.703125"/>
       <use xlink:href="#DejaVuSans-64" x="148.486328"/>
       <use xlink:href="#DejaVuSans-65" x="211.962891"/>
       <use xlink:href="#DejaVuSans-6e" x="273.486328"/>
       <use xlink:href="#DejaVuSans-63" x="336.865234"/>
       <use xlink:href="#DejaVuSans-65" x="391.845703"/>
       <use xlink:href="#DejaVuSans-20" x="453.369141"/>
       <use xlink:href="#DejaVuSans-75" x="485.15625"/>
       <use xlink:href="#DejaVuSans-74" x="548.535156"/>
       <use xlink:href="#DejaVuSans-69" x="587.744141"/>
       <use xlink:href="#DejaVuSans-6c" x="615.527344"/>
       <use xlink:href="#DejaVuSans-69" x="643.310547"/>
       <use xlink:href="#DejaVuSans-7a" x="671.09375"/>
       <use xlink:href="#DejaVuSans-61" x="723.583984"/>
       <use xlink:href="#DejaVuSans-74" x="784.863281"/>
       <use xlink:href="#DejaVuSans-69" x="824.072266"/>
       <use xlink:href="#DejaVuSans-6f" x="851.855469"/>
       <use xlink:href="#DejaVuSans-6e" x="913.037109"/>
       <use xlink:href="#DejaVuSans-20" x="976.416016"/>
       <use xlink:href="#DejaVuSans-66" x="1008.203125"/>
       <use xlink:href="#DejaVuSans-61" x="1043.408203"/>
       <use xlink:href="#DejaVuSans-69" x="1104.6875"/>
       <use xlink:href="#DejaVuSans-6c" x="1132.470703"/>
       <use xlink:href="#DejaVuSans-75" x="1160.253906"/>
       <use xlink:href="#DejaVuSans-72" x="1223.632812"/>
       <use xlink:href="#DejaVuSans-65" x="1262.496094"/>
      </g>
     </g>
    </g>
    <g id="ytick_8">
     <g id="line2d_24">
      <g>
       <use xlink:href="#md40ca640c9" x="149.26875" y="69.936457" style="fill: #334155; stroke: #334155; stroke-width: 0.8"/>
      </g>
     </g>
     <g id="text_17">
      <!-- small model semantic limit -->
      <g style="fill: #334155" transform="translate(7.2 73.735675) scale(0.1 -0.1)">
       <use xlink:href="#DejaVuSans-73"/>
       <use xlink:href="#DejaVuSans-6d" x="52.099609"/>
       <use xlink:href="#DejaVuSans-61" x="149.511719"/>
       <use xlink:href="#DejaVuSans-6c" x="210.791016"/>
       <use xlink:href="#DejaVuSans-6c" x="238.574219"/>
       <use xlink:href="#DejaVuSans-20" x="266.357422"/>
       <use xlink:href="#DejaVuSans-6d" x="298.144531"/>
       <use xlink:href="#DejaVuSans-6f" x="395.556641"/>
       <use xlink:href="#DejaVuSans-64" x="456.738281"/>
       <use xlink:href="#DejaVuSans-65" x="520.214844"/>
       <use xlink:href="#DejaVuSans-6c" x="581.738281"/>
       <use xlink:href="#DejaVuSans-20" x="609.521484"/>
       <use xlink:href="#DejaVuSans-73" x="641.308594"/>
       <use xlink:href="#DejaVuSans-65" x="693.408203"/>
       <use xlink:href="#DejaVuSans-6d" x="754.931641"/>
       <use xlink:href="#DejaVuSans-61" x="852.34375"/>
       <use xlink:href="#DejaVuSans-6e" x="913.623047"/>
       <use xlink:href="#DejaVuSans-74" x="977.001953"/>
       <use xlink:href="#DejaVuSans-69" x="1016.210938"/>
       <use xlink:href="#DejaVuSans-63" x="1043.994141"/>
       <use xlink:href="#DejaVuSans-20" x="1098.974609"/>
       <use xlink:href="#DejaVuSans-6c" x="1130.761719"/>
       <use xlink:href="#DejaVuSans-69" x="1158.544922"/>
       <use xlink:href="#DejaVuSans-6d" x="1186.328125"/>
       <use xlink:href="#DejaVuSans-69" x="1283.740234"/>
       <use xlink:href="#DejaVuSans-74" x="1311.523438"/>
      </g>
     </g>
    </g>
   </g>
   <g id="patch_11">
    <path d="M 149.26875 377.591108
L 149.26875 38.736562
" style="fill: none; stroke: #cbd5e1; stroke-width: 0.8; stroke-linejoin: miter; stroke-linecap: square"/>
   </g>
   <g id="patch_12">
    <path d="M 149.26875 377.591108
L 691.473295 377.591108
" style="fill: none; stroke: #cbd5e1; stroke-width: 0.8; stroke-linejoin: miter; stroke-linecap: square"/>
   </g>
   <g id="text_18">
    <!-- 2 -->
    <g style="fill: #334155" transform="translate(305.905619 349.702464) scale(0.12 -0.12)">
     <use xlink:href="#DejaVuSans-32"/>
    </g>
   </g>
   <g id="text_19">
    <!-- 2 -->
    <g style="fill: #334155" transform="translate(305.905619 310.208927) scale(0.12 -0.12)">
     <use xlink:href="#DejaVuSans-32"/>
    </g>
   </g>
   <g id="text_20">
    <!-- 3 -->
    <g style="fill: #334155" transform="translate(381.211806 270.71539) scale(0.12 -0.12)">
     <use xlink:href="#DejaVuSans-33"/>
    </g>
   </g>
   <g id="text_21">
    <!-- 3 -->
    <g style="fill: #334155" transform="translate(381.211806 231.221854) scale(0.12 -0.12)">
     <use xlink:href="#DejaVuSans-33"/>
    </g>
   </g>
   <g id="text_22">
    <!-- 4 -->
    <g style="fill: #334155" transform="translate(456.517992 191.728317) scale(0.12 -0.12)">
     <use xlink:href="#DejaVuSans-34"/>
    </g>
   </g>
   <g id="text_23">
    <!-- 4 -->
    <g style="fill: #334155" transform="translate(456.517992 152.23478) scale(0.12 -0.12)">
     <use xlink:href="#DejaVuSans-34"/>
    </g>
   </g>
   <g id="text_24">
    <!-- 6 -->
    <g style="fill: #334155" transform="translate(607.130366 112.741243) scale(0.12 -0.12)">
     <use xlink:href="#DejaVuSans-36"/>
    </g>
   </g>
   <g id="text_25">
    <!-- 6 -->
    <g style="fill: #334155" transform="translate(607.130366 73.247707) scale(0.12 -0.12)">
     <use xlink:href="#DejaVuSans-36"/>
    </g>
   </g>
   <g id="text_26">
    <!-- 30 stratified diagnostic queries; counts are not dataset frequencies -->
    <g style="fill: #64748b" transform="translate(149.26875 41.50111) scale(0.11 -0.11)">
     <defs>
      <path id="DejaVuSans-3b" d="M 750 3309
L 1409 3309
L 1409 2516
L 750 2516
L 750 3309
z
M 750 794
L 1409 794
L 1409 256
L 897 -744
L 494 -744
L 750 256
L 750 794
z
" transform="scale(0.015625)"/>
     </defs>
     <use xlink:href="#DejaVuSans-33"/>
     <use xlink:href="#DejaVuSans-30" x="63.623047"/>
     <use xlink:href="#DejaVuSans-20" x="127.246094"/>
     <use xlink:href="#DejaVuSans-73" x="159.033203"/>
     <use xlink:href="#DejaVuSans-74" x="211.132812"/>
     <use xlink:href="#DejaVuSans-72" x="250.341797"/>
     <use xlink:href="#DejaVuSans-61" x="291.455078"/>
     <use xlink:href="#DejaVuSans-74" x="352.734375"/>
     <use xlink:href="#DejaVuSans-69" x="391.943359"/>
     <use xlink:href="#DejaVuSans-66" x="419.726562"/>
     <use xlink:href="#DejaVuSans-69" x="454.931641"/>
     <use xlink:href="#DejaVuSans-65" x="482.714844"/>
     <use xlink:href="#DejaVuSans-64" x="544.238281"/>
     <use xlink:href="#DejaVuSans-20" x="607.714844"/>
     <use xlink:href="#DejaVuSans-64" x="639.501953"/>
     <use xlink:href="#DejaVuSans-69" x="702.978516"/>
     <use xlink:href="#DejaVuSans-61" x="730.761719"/>
     <use xlink:href="#DejaVuSans-67" x="792.041016"/>
     <use xlink:href="#DejaVuSans-6e" x="855.517578"/>
     <use xlink:href="#DejaVuSans-6f" x="918.896484"/>
     <use xlink:href="#DejaVuSans-73" x="980.078125"/>
     <use xlink:href="#DejaVuSans-74" x="1032.177734"/>
     <use xlink:href="#DejaVuSans-69" x="1071.386719"/>
     <use xlink:href="#DejaVuSans-63" x="1099.169922"/>
     <use xlink:href="#DejaVuSans-20" x="1154.150391"/>
     <use xlink:href="#DejaVuSans-71" x="1185.9375"/>
     <use xlink:href="#DejaVuSans-75" x="1249.414062"/>
     <use xlink:href="#DejaVuSans-65" x="1312.792969"/>
     <use xlink:href="#DejaVuSans-72" x="1374.316406"/>
     <use xlink:href="#DejaVuSans-69" x="1415.429688"/>
     <use xlink:href="#DejaVuSans-65" x="1443.212891"/>
     <use xlink:href="#DejaVuSans-73" x="1504.736328"/>
     <use xlink:href="#DejaVuSans-3b" x="1556.835938"/>
     <use xlink:href="#DejaVuSans-20" x="1590.527344"/>
     <use xlink:href="#DejaVuSans-63" x="1622.314453"/>
     <use xlink:href="#DejaVuSans-6f" x="1677.294922"/>
     <use xlink:href="#DejaVuSans-75" x="1738.476562"/>
     <use xlink:href="#DejaVuSans-6e" x="1801.855469"/>
     <use xlink:href="#DejaVuSans-74" x="1865.234375"/>
     <use xlink:href="#DejaVuSans-73" x="1904.443359"/>
     <use xlink:href="#DejaVuSans-20" x="1956.542969"/>
     <use xlink:href="#DejaVuSans-61" x="1988.330078"/>
     <use xlink:href="#DejaVuSans-72" x="2049.609375"/>
     <use xlink:href="#DejaVuSans-65" x="2088.472656"/>
     <use xlink:href="#DejaVuSans-20" x="2149.996094"/>
     <use xlink:href="#DejaVuSans-6e" x="2181.783203"/>
     <use xlink:href="#DejaVuSans-6f" x="2245.162109"/>
     <use xlink:href="#DejaVuSans-74" x="2306.34375"/>
     <use xlink:href="#DejaVuSans-20" x="2345.552734"/>
     <use xlink:href="#DejaVuSans-64" x="2377.339844"/>
     <use xlink:href="#DejaVuSans-61" x="2440.816406"/>
     <use xlink:href="#DejaVuSans-74" x="2502.095703"/>
     <use xlink:href="#DejaVuSans-61" x="2541.304688"/>
     <use xlink:href="#DejaVuSans-73" x="2602.583984"/>
     <use xlink:href="#DejaVuSans-65" x="2654.683594"/>
     <use xlink:href="#DejaVuSans-74" x="2716.207031"/>
     <use xlink:href="#DejaVuSans-20" x="2755.416016"/>
     <use xlink:href="#DejaVuSans-66" x="2787.203125"/>
     <use xlink:href="#DejaVuSans-72" x="2822.408203"/>
     <use xlink:href="#DejaVuSans-65" x="2861.271484"/>
     <use xlink:href="#DejaVuSans-71" x="2922.794922"/>
     <use xlink:href="#DejaVuSans-75" x="2986.271484"/>
     <use xlink:href="#DejaVuSans-65" x="3049.650391"/>
     <use xlink:href="#DejaVuSans-6e" x="3111.173828"/>
     <use xlink:href="#DejaVuSans-63" x="3174.552734"/>
     <use xlink:href="#DejaVuSans-69" x="3229.533203"/>
     <use xlink:href="#DejaVuSans-65" x="3257.316406"/>
     <use xlink:href="#DejaVuSans-73" x="3318.839844"/>
    </g>
   </g>
   <g id="text_27">
    <!-- Error Taxonomy -->
    <g style="fill: #0f172a" transform="translate(149.26875 20.736562) scale(0.18 -0.18)">
     <defs>
      <path id="DejaVuSans-Bold-45" d="M 588 4666
L 3834 4666
L 3834 3756
L 1791 3756
L 1791 2888
L 3713 2888
L 3713 1978
L 1791 1978
L 1791 909
L 3903 909
L 3903 0
L 588 0
L 588 4666
z
" transform="scale(0.015625)"/>
      <path id="DejaVuSans-Bold-72" d="M 3138 2547
Q 2991 2616 2845 2648
Q 2700 2681 2553 2681
Q 2122 2681 1889 2404
Q 1656 2128 1656 1613
L 1656 0
L 538 0
L 538 3500
L 1656 3500
L 1656 2925
Q 1872 3269 2151 3426
Q 2431 3584 2822 3584
Q 2878 3584 2943 3579
Q 3009 3575 3134 3559
L 3138 2547
z
" transform="scale(0.015625)"/>
      <path id="DejaVuSans-Bold-6f" d="M 2203 2784
Q 1831 2784 1636 2517
Q 1441 2250 1441 1747
Q 1441 1244 1636 976
Q 1831 709 2203 709
Q 2569 709 2762 976
Q 2956 1244 2956 1747
Q 2956 2250 2762 2517
Q 2569 2784 2203 2784
z
M 2203 3584
Q 3106 3584 3614 3096
Q 4122 2609 4122 1747
Q 4122 884 3614 396
Q 3106 -91 2203 -91
Q 1297 -91 786 396
Q 275 884 275 1747
Q 275 2609 786 3096
Q 1297 3584 2203 3584
z
" transform="scale(0.015625)"/>
      <path id="DejaVuSans-Bold-20" transform="scale(0.015625)"/>
      <path id="DejaVuSans-Bold-54" d="M 31 4666
L 4331 4666
L 4331 3756
L 2784 3756
L 2784 0
L 1581 0
L 1581 3756
L 31 3756
L 31 4666
z
" transform="scale(0.015625)"/>
      <path id="DejaVuSans-Bold-61" d="M 2106 1575
Q 1756 1575 1579 1456
Q 1403 1338 1403 1106
Q 1403 894 1545 773
Q 1688 653 1941 653
Q 2256 653 2472 879
Q 2688 1106 2688 1447
L 2688 1575
L 2106 1575
z
M 3816 1997
L 3816 0
L 2688 0
L 2688 519
Q 2463 200 2181 54
Q 1900 -91 1497 -91
Q 953 -91 614 226
Q 275 544 275 1050
Q 275 1666 698 1953
Q 1122 2241 2028 2241
L 2688 2241
L 2688 2328
Q 2688 2594 2478 2717
Q 2269 2841 1825 2841
Q 1466 2841 1156 2769
Q 847 2697 581 2553
L 581 3406
Q 941 3494 1303 3539
Q 1666 3584 2028 3584
Q 2975 3584 3395 3211
Q 3816 2838 3816 1997
z
" transform="scale(0.015625)"/>
      <path id="DejaVuSans-Bold-78" d="M 1422 1791
L 159 3500
L 1344 3500
L 2059 2463
L 2784 3500
L 3969 3500
L 2706 1797
L 4031 0
L 2847 0
L 2059 1106
L 1281 0
L 97 0
L 1422 1791
z
" transform="scale(0.015625)"/>
      <path id="DejaVuSans-Bold-6e" d="M 4056 2131
L 4056 0
L 2931 0
L 2931 347
L 2931 1631
Q 2931 2084 2911 2256
Q 2891 2428 2841 2509
Q 2775 2619 2662 2680
Q 2550 2741 2406 2741
Q 2056 2741 1856 2470
Q 1656 2200 1656 1722
L 1656 0
L 538 0
L 538 3500
L 1656 3500
L 1656 2988
Q 1909 3294 2193 3439
Q 2478 3584 2822 3584
Q 3428 3584 3742 3212
Q 4056 2841 4056 2131
z
" transform="scale(0.015625)"/>
      <path id="DejaVuSans-Bold-6d" d="M 3781 2919
Q 3994 3244 4286 3414
Q 4578 3584 4928 3584
Q 5531 3584 5847 3212
Q 6163 2841 6163 2131
L 6163 0
L 5038 0
L 5038 1825
Q 5041 1866 5042 1909
Q 5044 1953 5044 2034
Q 5044 2406 4934 2573
Q 4825 2741 4581 2741
Q 4263 2741 4089 2478
Q 3916 2216 3909 1719
L 3909 0
L 2784 0
L 2784 1825
Q 2784 2406 2684 2573
Q 2584 2741 2328 2741
Q 2006 2741 1831 2477
Q 1656 2213 1656 1722
L 1656 0
L 531 0
L 531 3500
L 1656 3500
L 1656 2988
Q 1863 3284 2130 3434
Q 2397 3584 2719 3584
Q 3081 3584 3359 3409
Q 3638 3234 3781 2919
z
" transform="scale(0.015625)"/>
      <path id="DejaVuSans-Bold-79" d="M 78 3500
L 1197 3500
L 2138 1125
L 2938 3500
L 4056 3500
L 2584 -331
Q 2363 -916 2067 -1148
Q 1772 -1381 1288 -1381
L 641 -1381
L 641 -647
L 991 -647
Q 1275 -647 1404 -556
Q 1534 -466 1606 -231
L 1638 -134
L 78 3500
z
" transform="scale(0.015625)"/>
     </defs>
     <use xlink:href="#DejaVuSans-Bold-45"/>
     <use xlink:href="#DejaVuSans-Bold-72" x="68.310547"/>
     <use xlink:href="#DejaVuSans-Bold-72" x="117.626953"/>
     <use xlink:href="#DejaVuSans-Bold-6f" x="166.943359"/>
     <use xlink:href="#DejaVuSans-Bold-72" x="235.644531"/>
     <use xlink:href="#DejaVuSans-Bold-20" x="284.960938"/>
     <use xlink:href="#DejaVuSans-Bold-54" x="319.775391"/>
     <use xlink:href="#DejaVuSans-Bold-61" x="375.113281"/>
     <use xlink:href="#DejaVuSans-Bold-78" x="442.59375"/>
     <use xlink:href="#DejaVuSans-Bold-6f" x="507.095703"/>
     <use xlink:href="#DejaVuSans-Bold-6e" x="575.796875"/>
     <use xlink:href="#DejaVuSans-Bold-6f" x="646.988281"/>
     <use xlink:href="#DejaVuSans-Bold-6d" x="715.689453"/>
     <use xlink:href="#DejaVuSans-Bold-79" x="819.888672"/>
    </g>
   </g>
  </g>
 </g>
 <defs>
  <clipPath id="p55f73881d1">
   <rect x="149.26875" y="38.736562" width="542.204545" height="338.854545"/>
  </clipPath>
 </defs>
</svg>
